<svg width="276" height="98" viewBox="0 0 276 98" fill="none" xmlns="http://www.w3.org/2000/svg">
<path d="M62.4375 66.6875C62.1458 66.5625 61.8333 66.3333 61.5 66C61.1875 65.6667 60.8854 65.2708 60.5938 64.8125C60.3021 64.3542 60.0625 63.8542 59.875 63.3125C59.6875 62.75 59.5938 62.1875 59.5938 61.625C59.5938 60.7917 59.8854 59.9688 60.4688 59.1562C60.5938 59.0104 60.7396 58.8229 60.9062 58.5938C61.0938 58.3646 61.3021 58.1458 61.5312 57.9375C61.7812 57.7083 62.0417 57.5208 62.3125 57.375C62.5833 57.2292 62.8646 57.1562 63.1562 57.1562C63.2812 57.1562 63.4062 57.1771 63.5312 57.2188C63.6562 57.2396 63.7708 57.2917 63.875 57.375C64.0833 57.5 64.2812 57.7812 64.4688 58.2188C64.6562 58.6562 64.8646 59.1146 65.0938 59.5938C65.3229 60.0521 65.5833 60.4688 65.875 60.8438C66.1667 61.2188 66.5 61.4062 66.875 61.4062C67.5833 61.4062 68.3333 61.0625 69.125 60.375C69.9167 59.6667 70.7188 58.7083 71.5312 57.5C72.3438 56.2917 73.1667 54.8854 74 53.2812C74.8333 51.6562 75.6458 49.9271 76.4375 48.0938C77.25 46.2604 78.0312 44.3646 78.7812 42.4062C79.5312 40.4479 80.2396 38.5312 80.9062 36.6562C81.5938 34.7812 82.2188 32.9896 82.7812 31.2812C83.3646 29.5729 83.8646 28.0521 84.2812 26.7188C84.7188 25.3646 85.0729 24.25 85.3438 23.375C85.6146 22.5 85.7812 21.9479 85.8438 21.7188C86.0312 21.0729 86.3542 20.6042 86.8125 20.3125C87.2917 20.0208 87.8021 19.875 88.3438 19.875C89.1354 19.875 89.7396 20.125 90.1562 20.625C90.5729 21.1042 90.7812 21.9896 90.7812 23.2812C90.7812 23.4896 90.7708 23.7083 90.75 23.9375C90.75 24.1667 90.7396 24.4062 90.7188 24.6562C90.6562 25.2604 90.5104 26.1042 90.2812 27.1875C90.0729 28.25 89.7812 29.4792 89.4062 30.875C89.0312 32.2708 88.5833 33.8021 88.0625 35.4688C87.5417 37.1354 86.9583 38.8646 86.3125 40.6562C89.2917 38.1146 91.9271 35.8958 94.2188 34C96.5312 32.1042 98.5521 30.4792 100.281 29.125C102.031 27.75 103.521 26.625 104.75 25.75C105.979 24.8542 107.01 24.1562 107.844 23.6562C108.698 23.1354 109.375 22.7708 109.875 22.5625C110.375 22.3542 110.771 22.25 111.062 22.25C111.375 22.25 111.646 22.3333 111.875 22.5C112.104 22.6667 112.292 22.8646 112.438 23.0938C112.604 23.3229 112.719 23.5625 112.781 23.8125C112.865 24.0417 112.906 24.2292 112.906 24.375C112.906 24.7292 112.812 25.0729 112.625 25.4062C112.458 25.7188 112.198 25.9896 111.844 26.2188C110.385 27.2396 108.854 28.3646 107.25 29.5938C105.646 30.8229 104.031 32.0938 102.406 33.4062C100.802 34.6979 99.2188 36 97.6562 37.3125C96.0938 38.625 94.6146 39.8646 93.2188 41.0312C91.8438 42.1979 90.5833 43.25 89.4375 44.1875C88.3125 45.125 87.3646 45.8854 86.5938 46.4688C87.6979 47.9479 88.7604 49.3542 89.7812 50.6875C90.8229 52.0208 91.8125 53.3229 92.75 54.5938C93.7083 55.8438 94.625 57.0729 95.5 58.2812C96.3958 59.4896 97.2396 60.7083 98.0312 61.9375C98.3021 62.3542 98.4896 62.7708 98.5938 63.1875C98.7188 63.5833 98.7812 63.9479 98.7812 64.2812C98.7812 64.8438 98.6562 65.3333 98.4062 65.75C98.1562 66.1667 97.8542 66.5104 97.5 66.7812C97.1667 67.0521 96.8125 67.25 96.4375 67.375C96.0833 67.5208 95.7812 67.5938 95.5312 67.5938C94.8438 67.5938 94.1875 67.3438 93.5625 66.8438C92.9583 66.3646 92.4375 65.75 92 65C91.3542 64.1458 90.8125 63.4167 90.375 62.8125C89.9583 62.2083 89.5729 61.6458 89.2188 61.125C88.8646 60.5833 88.5104 60.0312 88.1562 59.4688C87.8229 58.9062 87.3958 58.2292 86.875 57.4375C86.375 56.625 85.75 55.6562 85 54.5312C84.25 53.4062 83.3125 52.0104 82.1875 50.3438C81.0833 52.6354 79.8958 54.8229 78.625 56.9062C77.375 58.9896 76.0521 60.8229 74.6562 62.4062C73.2604 63.9896 71.8021 65.2396 70.2812 66.1562C68.7604 67.0938 67.1979 67.5625 65.5938 67.5625C65.0312 67.5625 64.4792 67.4896 63.9375 67.3438C63.4167 67.1979 62.9167 66.9792 62.4375 66.6875ZM114.125 37.9688C114.125 37.4896 114.208 37 114.375 36.5C114.562 35.9792 114.833 35.5104 115.188 35.0938C115.542 34.6771 115.979 34.3333 116.5 34.0625C117.042 33.7917 117.677 33.6562 118.406 33.6562C119.615 33.6562 120.458 33.8958 120.938 34.375C121.417 34.8333 121.656 35.4167 121.656 36.125C121.656 36.5208 121.573 36.9583 121.406 37.4375C121.26 37.9167 121.031 38.3646 120.719 38.7812C120.406 39.1771 120 39.5104 119.5 39.7812C119 40.0521 118.406 40.1875 117.719 40.1875C116.427 40.1875 115.521 39.9896 115 39.5938C114.479 39.1771 114.188 38.6354 114.125 37.9688ZM110.688 45C111.042 44.4167 111.448 44 111.906 43.75C112.365 43.5 112.833 43.375 113.312 43.375C114.104 43.375 114.781 43.6354 115.344 44.1562C115.927 44.6562 116.219 45.3021 116.219 46.0938C116.198 46.2812 116.167 46.4688 116.125 46.6562C116.104 46.8438 116.042 47.0312 115.938 47.2188C115.646 47.7604 115.406 48.2188 115.219 48.5938C115.031 48.9688 114.854 49.3229 114.688 49.6562C114.542 49.9688 114.396 50.2812 114.25 50.5938C114.104 50.9062 113.927 51.2812 113.719 51.7188C113.469 52.2396 113.188 52.8125 112.875 53.4375C112.562 54.0417 112.26 54.6667 111.969 55.3125C111.698 55.9583 111.458 56.5938 111.25 57.2188C111.062 57.8438 110.969 58.4167 110.969 58.9375C110.969 59.5 111.104 59.875 111.375 60.0625C111.667 60.2292 112.073 60.3125 112.594 60.3125C113.177 60.3125 113.781 60.1875 114.406 59.9375C115.052 59.6875 115.698 59.3646 116.344 58.9688C116.99 58.5729 117.625 58.125 118.25 57.625C118.875 57.1042 119.458 56.5833 120 56.0625C120.562 55.5417 121.073 55.0417 121.531 54.5625C122.01 54.0833 122.406 53.6562 122.719 53.2812C123.135 52.8854 123.552 52.6875 123.969 52.6875C124.344 52.6875 124.646 52.8542 124.875 53.1875C125.125 53.5208 125.25 53.9479 125.25 54.4688C125.25 54.9479 125.125 55.4583 124.875 56C124.646 56.5417 124.26 57.0521 123.719 57.5312C122.656 58.6146 121.573 59.6562 120.469 60.6562C119.365 61.6354 118.229 62.5104 117.062 63.2812C115.917 64.0312 114.76 64.6354 113.594 65.0938C112.427 65.5521 111.25 65.7812 110.062 65.7812C108.375 65.7812 107.042 65.3542 106.062 64.5C105.104 63.625 104.625 62.2708 104.625 60.4375C104.625 59.4792 104.76 58.5417 105.031 57.625C105.302 56.7083 105.625 55.8229 106 54.9688C106.375 54.0938 106.771 53.2604 107.188 52.4688C107.604 51.6562 107.958 50.8854 108.25 50.1562C108.354 49.8854 108.531 49.4688 108.781 48.9062C109.052 48.3438 109.333 47.7708 109.625 47.1875C109.958 46.5 110.312 45.7708 110.688 45ZM131.5 63.9375C131.5 62.9375 131.719 61.9167 132.156 60.875C132.615 59.8333 133.188 58.7604 133.875 57.6562C134.562 56.5521 135.312 55.4375 136.125 54.3125C136.938 53.1667 137.708 52 138.438 50.8125C138.646 50.4792 138.812 50.1667 138.938 49.875C139.062 49.5625 139.125 49.25 139.125 48.9375C139.125 48.6042 139.031 48.3333 138.844 48.125C138.656 47.8958 138.385 47.7812 138.031 47.7812C137.177 47.7812 136.354 47.9688 135.562 48.3438C134.771 48.6979 134.01 49.1771 133.281 49.7812C132.552 50.3646 131.854 51.0417 131.188 51.8125C130.542 52.5833 129.927 53.3854 129.344 54.2188C128.781 55.0312 128.25 55.8438 127.75 56.6562C127.25 57.4688 126.792 58.2083 126.375 58.875C126 59.5625 125.656 60.3125 125.344 61.125C125.031 61.9375 124.688 62.6875 124.312 63.375C123.958 64.0625 123.552 64.6354 123.094 65.0938C122.635 65.5729 122.062 65.8125 121.375 65.8125C120.625 65.8125 120.031 65.5729 119.594 65.0938C119.156 64.6146 118.938 64.0417 118.938 63.375C118.938 63 119.073 62.4167 119.344 61.625C119.615 60.8333 119.958 59.9167 120.375 58.875C120.812 57.8125 121.302 56.6875 121.844 55.5C122.385 54.3125 122.917 53.1354 123.438 51.9688C123.979 50.8021 124.479 49.7083 124.938 48.6875C125.417 47.6458 125.812 46.7604 126.125 46.0312C126.5 45.1354 126.99 44.4688 127.594 44.0312C128.219 43.5938 128.833 43.375 129.438 43.375C129.958 43.375 130.417 43.5729 130.812 43.9688C131.229 44.3438 131.438 44.8958 131.438 45.625C131.438 46.1667 131.312 46.7604 131.062 47.4062C131.625 46.8854 132.229 46.3229 132.875 45.7188C133.521 45.1146 134.219 44.5625 134.969 44.0625C135.74 43.5417 136.594 43.1146 137.531 42.7812C138.469 42.4479 139.521 42.2812 140.688 42.2812C141.271 42.2812 141.823 42.3542 142.344 42.5C142.865 42.6458 143.323 42.875 143.719 43.1875C144.135 43.5 144.469 43.9062 144.719 44.4062C144.99 44.9062 145.146 45.5104 145.188 46.2188C145.667 45.7396 146.188 45.2708 146.75 44.8125C147.312 44.3333 147.917 43.9062 148.562 43.5312C149.229 43.1562 149.948 42.8542 150.719 42.625C151.49 42.3958 152.344 42.2812 153.281 42.2812C153.969 42.2812 154.625 42.3542 155.25 42.5C155.875 42.6458 156.427 42.8958 156.906 43.25C157.406 43.5833 157.792 44.0208 158.062 44.5625C158.354 45.1042 158.5 45.7708 158.5 46.5625C158.5 47.8125 158.208 49 157.625 50.125C157.062 51.25 156.396 52.2812 155.625 53.2188C155.375 53.5312 155.042 53.9271 154.625 54.4062C154.208 54.8854 153.802 55.3958 153.406 55.9375C153.01 56.4792 152.667 57.0417 152.375 57.625C152.083 58.1875 151.938 58.7188 151.938 59.2188C151.938 59.6771 152.073 59.9688 152.344 60.0938C152.635 60.2188 153.01 60.2812 153.469 60.2812C154.344 60.2812 155.292 60.0208 156.312 59.5C157.333 58.9792 158.323 58.3542 159.281 57.625C160.26 56.875 161.167 56.1042 162 55.3125C162.854 54.5 163.531 53.8229 164.031 53.2812C164.156 53.1354 164.302 53.0312 164.469 52.9688C164.635 52.9062 164.802 52.875 164.969 52.875C165.344 52.875 165.677 53.0417 165.969 53.375C166.281 53.7083 166.438 54.1458 166.438 54.6875C166.438 55.1042 166.312 55.5625 166.062 56.0625C165.812 56.5625 165.385 57.0521 164.781 57.5312C163.656 58.6146 162.5 59.6562 161.312 60.6562C160.146 61.6354 158.958 62.5104 157.75 63.2812C156.562 64.0312 155.365 64.6354 154.156 65.0938C152.969 65.5521 151.781 65.7812 150.594 65.7812C149.052 65.7812 147.802 65.4167 146.844 64.6875C145.906 63.9583 145.438 62.8021 145.438 61.2188C145.438 60.1771 145.635 59.1979 146.031 58.2812C146.427 57.3646 146.917 56.4896 147.5 55.6562C148.083 54.8021 148.698 53.9792 149.344 53.1875C149.99 52.3958 150.552 51.6042 151.031 50.8125C151.24 50.4792 151.406 50.1667 151.531 49.875C151.656 49.5625 151.719 49.25 151.719 48.9375C151.719 48.6042 151.625 48.3333 151.438 48.125C151.25 47.8958 150.979 47.7812 150.625 47.7812C149.771 47.7812 148.948 47.9688 148.156 48.3438C147.365 48.6979 146.604 49.1771 145.875 49.7812C145.146 50.3646 144.448 51.0417 143.781 51.8125C143.135 52.5833 142.521 53.3854 141.938 54.2188C141.375 55.0312 140.844 55.8438 140.344 56.6562C139.844 57.4688 139.385 58.2083 138.969 58.875C138.594 59.5625 138.25 60.3125 137.938 61.125C137.625 61.9375 137.281 62.6875 136.906 63.375C136.552 64.0625 136.146 64.6354 135.688 65.0938C135.229 65.5729 134.656 65.8125 133.969 65.8125C133.719 65.8125 133.448 65.7604 133.156 65.6562C132.865 65.5729 132.594 65.4479 132.344 65.2812C132.115 65.1146 131.917 64.9167 131.75 64.6875C131.604 64.4583 131.521 64.2083 131.5 63.9375ZM180.219 45.1562C180.219 45.8021 180.146 46.5208 180 47.3125C179.854 48.0833 179.615 48.8125 179.281 49.5C178.948 50.1875 178.521 50.7604 178 51.2188C177.479 51.6771 176.833 51.9062 176.062 51.9062C175.646 51.9062 175.375 51.8438 175.25 51.7188C175.146 51.5938 175.094 51.375 175.094 51.0625C175.094 50.875 175.094 50.6042 175.094 50.25C175.115 49.875 175.125 49.5208 175.125 49.1875C175.125 48.8125 175.073 48.5 174.969 48.25C174.865 47.9792 174.604 47.8438 174.188 47.8438C173.708 47.8438 173.167 48.0312 172.562 48.4062C171.979 48.7604 171.385 49.2292 170.781 49.8125C170.198 50.3958 169.625 51.0625 169.062 51.8125C168.5 52.5417 167.99 53.2917 167.531 54.0625C167.094 54.8125 166.74 55.5417 166.469 56.25C166.219 56.9583 166.094 57.5625 166.094 58.0625C166.094 58.7917 166.344 59.3646 166.844 59.7812C167.365 60.1979 168.062 60.4062 168.938 60.4062C169.875 60.4062 170.875 60.25 171.938 59.9375C173 59.625 174.052 59.2292 175.094 58.75C176.156 58.2708 177.177 57.75 178.156 57.1875C179.135 56.625 180.021 56.0938 180.812 55.5938C181.625 55.0729 182.302 54.6354 182.844 54.2812C183.385 53.9062 183.74 53.6771 183.906 53.5938C184.24 53.4271 184.552 53.3438 184.844 53.3438C185.094 53.3438 185.302 53.4062 185.469 53.5312C185.656 53.6354 185.802 53.7708 185.906 53.9375C186.01 54.0833 186.083 54.25 186.125 54.4375C186.167 54.6042 186.188 54.75 186.188 54.875C186.188 55.0625 186.167 55.2917 186.125 55.5625C186.083 55.8125 185.927 56.1042 185.656 56.4375C185.552 56.5625 185.208 56.8854 184.625 57.4062C184.062 57.9062 183.323 58.5 182.406 59.1875C181.51 59.875 180.469 60.6146 179.281 61.4062C178.115 62.1771 176.854 62.8854 175.5 63.5312C174.167 64.1771 172.781 64.7083 171.344 65.125C169.906 65.5625 168.49 65.7812 167.094 65.7812C166.031 65.7812 165.083 65.6146 164.25 65.2812C163.438 64.9479 162.75 64.5 162.188 63.9375C161.625 63.3542 161.198 62.6771 160.906 61.9062C160.615 61.1354 160.469 60.3229 160.469 59.4688C160.469 58.5312 160.688 57.4583 161.125 56.25C161.562 55.0208 162.167 53.7708 162.938 52.5C163.708 51.2292 164.615 49.9792 165.656 48.75C166.698 47.5208 167.823 46.4271 169.031 45.4688C170.26 44.5104 171.531 43.7396 172.844 43.1562C174.177 42.5729 175.521 42.2812 176.875 42.2812C177.333 42.2812 177.76 42.3333 178.156 42.4375C178.573 42.5417 178.927 42.7083 179.219 42.9375C179.531 43.1458 179.771 43.4375 179.938 43.8125C180.125 44.1875 180.219 44.6354 180.219 45.1562ZM179.781 60.0625C180.281 59 180.854 57.8229 181.5 56.5312C182.146 55.2188 182.792 53.9271 183.438 52.6562C184.104 51.3646 184.729 50.1458 185.312 49C185.896 47.8333 186.385 46.8438 186.781 46.0312L197.094 25.75C197.219 25.4792 197.406 25.2188 197.656 24.9688C197.927 24.7188 198.229 24.5 198.562 24.3125C198.896 24.1042 199.25 23.9479 199.625 23.8438C200 23.7188 200.375 23.6562 200.75 23.6562C201.667 23.6562 202.302 23.8333 202.656 24.1875C203.01 24.5208 203.188 24.9375 203.188 25.4375C203.188 25.8958 203.073 26.3854 202.844 26.9062C202.615 27.4062 202.354 27.875 202.062 28.3125C201.146 29.875 200.26 31.4583 199.406 33.0625C198.573 34.6458 197.729 36.25 196.875 37.875C196.042 39.4792 195.198 41.0833 194.344 42.6875C193.49 44.2708 192.594 45.8438 191.656 47.4062C192.24 46.8438 192.854 46.2604 193.5 45.6562C194.167 45.0521 194.885 44.5 195.656 44C196.427 43.5 197.271 43.0938 198.188 42.7812C199.104 42.4479 200.125 42.2812 201.25 42.2812C201.917 42.2812 202.552 42.3438 203.156 42.4688C203.76 42.5938 204.292 42.8021 204.75 43.0938C205.208 43.3646 205.573 43.75 205.844 44.25C206.115 44.7292 206.25 45.3229 206.25 46.0312C206.25 46.9688 206.104 47.8333 205.812 48.625C205.542 49.3958 205.188 50.1354 204.75 50.8438C204.312 51.5312 203.833 52.1979 203.312 52.8438C202.792 53.4688 202.292 54.1146 201.812 54.7812C201.354 55.4271 200.948 56.1042 200.594 56.8125C200.26 57.5208 200.052 58.2917 199.969 59.125C199.969 59.1667 199.958 59.2083 199.938 59.25C199.938 59.2917 199.938 59.3333 199.938 59.375C199.938 59.7917 200.073 60.0521 200.344 60.1562C200.635 60.2604 201 60.3125 201.438 60.3125C202 60.3125 202.604 60.2083 203.25 60C203.896 59.7708 204.542 59.4792 205.188 59.125C205.854 58.75 206.51 58.3333 207.156 57.875C207.823 57.4167 208.448 56.9479 209.031 56.4688C209.635 55.9896 210.188 55.5312 210.688 55.0938C211.188 54.6354 211.615 54.2396 211.969 53.9062C212.156 53.7396 212.354 53.6146 212.562 53.5312C212.771 53.4479 212.969 53.4062 213.156 53.4062C213.531 53.4062 213.844 53.5521 214.094 53.8438C214.365 54.1146 214.5 54.4896 214.5 54.9688C214.5 55.4062 214.344 55.9062 214.031 56.4688C213.74 57.0312 213.229 57.5938 212.5 58.1562C211.354 59.1562 210.188 60.1146 209 61.0312C207.812 61.9479 206.615 62.7604 205.406 63.4688C204.198 64.1771 202.99 64.7396 201.781 65.1562C200.594 65.5729 199.427 65.7812 198.281 65.7812C196.802 65.7812 195.615 65.4479 194.719 64.7812C193.823 64.0938 193.375 63.0208 193.375 61.5625C193.375 60.5 193.552 59.5 193.906 58.5625C194.281 57.6042 194.729 56.6875 195.25 55.8125C195.792 54.9167 196.365 54.0625 196.969 53.25C197.573 52.4167 198.104 51.6042 198.562 50.8125C198.812 50.4583 199 50.1354 199.125 49.8438C199.271 49.5312 199.344 49.1979 199.344 48.8438C199.344 48.5312 199.26 48.2812 199.094 48.0938C198.927 47.8854 198.667 47.7812 198.312 47.7812C197.083 47.7812 195.948 48.0833 194.906 48.6875C193.865 49.2917 192.906 50.0625 192.031 51C191.156 51.9375 190.344 52.9688 189.594 54.0938C188.844 55.1979 188.146 56.2604 187.5 57.2812C187.208 57.7396 186.906 58.2708 186.594 58.875C186.302 59.4583 185.99 60.0625 185.656 60.6875C185.344 61.3125 185.01 61.9375 184.656 62.5625C184.302 63.1667 183.927 63.7083 183.531 64.1875C183.156 64.6667 182.75 65.0521 182.312 65.3438C181.896 65.6354 181.458 65.7812 181 65.7812C180.271 65.7812 179.708 65.5625 179.312 65.125C178.917 64.7083 178.719 64.1771 178.719 63.5312C178.719 63.0521 178.802 62.5521 178.969 62.0312C179.135 61.4896 179.406 60.8333 179.781 60.0625ZM218.375 37.9688C218.375 37.4896 218.458 37 218.625 36.5C218.812 35.9792 219.083 35.5104 219.438 35.0938C219.792 34.6771 220.229 34.3333 220.75 34.0625C221.292 33.7917 221.927 33.6562 222.656 33.6562C223.865 33.6562 224.708 33.8958 225.188 34.375C225.667 34.8333 225.906 35.4167 225.906 36.125C225.906 36.5208 225.823 36.9583 225.656 37.4375C225.51 37.9167 225.281 38.3646 224.969 38.7812C224.656 39.1771 224.25 39.5104 223.75 39.7812C223.25 40.0521 222.656 40.1875 221.969 40.1875C220.677 40.1875 219.771 39.9896 219.25 39.5938C218.729 39.1771 218.438 38.6354 218.375 37.9688ZM214.938 45C215.292 44.4167 215.698 44 216.156 43.75C216.615 43.5 217.083 43.375 217.562 43.375C218.354 43.375 219.031 43.6354 219.594 44.1562C220.177 44.6562 220.469 45.3021 220.469 46.0938C220.448 46.2812 220.417 46.4688 220.375 46.6562C220.354 46.8438 220.292 47.0312 220.188 47.2188C219.896 47.7604 219.656 48.2188 219.469 48.5938C219.281 48.9688 219.104 49.3229 218.938 49.6562C218.792 49.9688 218.646 50.2812 218.5 50.5938C218.354 50.9062 218.177 51.2812 217.969 51.7188C217.719 52.2396 217.438 52.8125 217.125 53.4375C216.812 54.0417 216.51 54.6667 216.219 55.3125C215.948 55.9583 215.708 56.5938 215.5 57.2188C215.312 57.8438 215.219 58.4167 215.219 58.9375C215.219 59.5 215.354 59.875 215.625 60.0625C215.917 60.2292 216.323 60.3125 216.844 60.3125C217.427 60.3125 218.031 60.1875 218.656 59.9375C219.302 59.6875 219.948 59.3646 220.594 58.9688C221.24 58.5729 221.875 58.125 222.5 57.625C223.125 57.1042 223.708 56.5833 224.25 56.0625C224.812 55.5417 225.323 55.0417 225.781 54.5625C226.26 54.0833 226.656 53.6562 226.969 53.2812C227.385 52.8854 227.802 52.6875 228.219 52.6875C228.594 52.6875 228.896 52.8542 229.125 53.1875C229.375 53.5208 229.5 53.9479 229.5 54.4688C229.5 54.9479 229.375 55.4583 229.125 56C228.896 56.5417 228.51 57.0521 227.969 57.5312C226.906 58.6146 225.823 59.6562 224.719 60.6562C223.615 61.6354 222.479 62.5104 221.312 63.2812C220.167 64.0312 219.01 64.6354 217.844 65.0938C216.677 65.5521 215.5 65.7812 214.312 65.7812C212.625 65.7812 211.292 65.3542 210.312 64.5C209.354 63.625 208.875 62.2708 208.875 60.4375C208.875 59.4792 209.01 58.5417 209.281 57.625C209.552 56.7083 209.875 55.8229 210.25 54.9688C210.625 54.0938 211.021 53.2604 211.438 52.4688C211.854 51.6562 212.208 50.8854 212.5 50.1562C212.604 49.8854 212.781 49.4688 213.031 48.9062C213.302 48.3438 213.583 47.7708 213.875 47.1875C214.208 46.5 214.562 45.7708 214.938 45Z" fill="black"/>
<path d="M1.52369 93V81.8H8.53169V82.728H2.49969V86.792H8.00369V87.752H2.49969V93H1.52369ZM13.2962 93.176C12.6135 93.176 12.0055 93.0053 11.4722 92.664C10.9389 92.3227 10.5175 91.8533 10.2082 91.256C9.89885 90.648 9.74419 89.9493 9.74419 89.16C9.74419 88.3707 9.89885 87.6773 10.2082 87.08C10.5175 86.472 10.9389 85.9973 11.4722 85.656C12.0055 85.3147 12.6135 85.144 13.2962 85.144C13.9895 85.144 14.6029 85.3147 15.1362 85.656C15.6695 85.9973 16.0909 86.472 16.4002 87.08C16.7095 87.6773 16.8642 88.3707 16.8642 89.16C16.8642 89.9493 16.7095 90.648 16.4002 91.256C16.0909 91.8533 15.6695 92.3227 15.1362 92.664C14.6029 93.0053 13.9895 93.176 13.2962 93.176ZM13.2962 92.264C13.7975 92.264 14.2402 92.136 14.6242 91.88C15.0189 91.624 15.3282 91.2667 15.5522 90.808C15.7762 90.3387 15.8882 89.7893 15.8882 89.16C15.8882 88.5307 15.7762 87.9867 15.5522 87.528C15.3282 87.0587 15.0189 86.696 14.6242 86.44C14.2402 86.184 13.7975 86.056 13.2962 86.056C12.5495 86.056 11.9309 86.3387 11.4402 86.904C10.9602 87.4587 10.7202 88.2107 10.7202 89.16C10.7202 90.0987 10.9602 90.8507 11.4402 91.416C11.9309 91.9813 12.5495 92.264 13.2962 92.264ZM18.8012 93V85.336H19.7292L19.7772 86.664C19.9905 86.216 20.3265 85.8533 20.7852 85.576C21.2545 85.288 21.7719 85.144 22.3372 85.144C22.4865 85.144 22.6359 85.1547 22.7852 85.176C22.9452 85.1867 23.0785 85.208 23.1852 85.24V86.184C23.0892 86.1627 22.9505 86.1413 22.7692 86.12C22.5985 86.0987 22.4225 86.088 22.2412 86.088C21.7932 86.088 21.3825 86.1947 21.0092 86.408C20.6359 86.6107 20.3372 86.888 20.1132 87.24C19.8999 87.5813 19.7932 87.9707 19.7932 88.408V93H18.8012ZM30.1652 93V86.232H28.5812V85.336H30.1652V83.816C30.1652 83.1867 30.2719 82.696 30.4852 82.344C30.6985 81.992 30.9812 81.7413 31.3332 81.592C31.6852 81.4427 32.0639 81.368 32.4692 81.368C32.6825 81.368 32.8799 81.384 33.0612 81.416C33.2532 81.4373 33.4185 81.4747 33.5572 81.528V82.44C33.4399 82.3867 33.2905 82.344 33.1092 82.312C32.9385 82.28 32.7679 82.264 32.5972 82.264C32.1705 82.264 31.8185 82.392 31.5412 82.648C31.2639 82.8933 31.1252 83.304 31.1252 83.88V85.336H33.5572V86.232H31.1252V93H30.1652ZM38.1868 93.176C37.5041 93.176 36.8961 93.0053 36.3628 92.664C35.8295 92.3227 35.4081 91.8533 35.0988 91.256C34.7895 90.648 34.6348 89.9493 34.6348 89.16C34.6348 88.3707 34.7895 87.6773 35.0988 87.08C35.4081 86.472 35.8295 85.9973 36.3628 85.656C36.8961 85.3147 37.5041 85.144 38.1868 85.144C38.8801 85.144 39.4935 85.3147 40.0268 85.656C40.5601 85.9973 40.9815 86.472 41.2908 87.08C41.6001 87.6773 41.7548 88.3707 41.7548 89.16C41.7548 89.9493 41.6001 90.648 41.2908 91.256C40.9815 91.8533 40.5601 92.3227 40.0268 92.664C39.4935 93.0053 38.8801 93.176 38.1868 93.176ZM38.1868 92.264C38.6881 92.264 39.1308 92.136 39.5148 91.88C39.9095 91.624 40.2188 91.2667 40.4428 90.808C40.6668 90.3387 40.7788 89.7893 40.7788 89.16C40.7788 88.5307 40.6668 87.9867 40.4428 87.528C40.2188 87.0587 39.9095 86.696 39.5148 86.44C39.1308 86.184 38.6881 86.056 38.1868 86.056C37.4401 86.056 36.8215 86.3387 36.3308 86.904C35.8508 87.4587 35.6108 88.2107 35.6108 89.16C35.6108 90.0987 35.8508 90.8507 36.3308 91.416C36.8215 91.9813 37.4401 92.264 38.1868 92.264ZM43.6918 93V85.336H44.6198L44.6678 86.664C44.8811 86.216 45.2171 85.8533 45.6758 85.576C46.1451 85.288 46.6625 85.144 47.2278 85.144C47.3771 85.144 47.5265 85.1547 47.6758 85.176C47.8358 85.1867 47.9691 85.208 48.0758 85.24V86.184C47.9798 86.1627 47.8411 86.1413 47.6598 86.12C47.4891 86.0987 47.3131 86.088 47.1318 86.088C46.6838 86.088 46.2731 86.1947 45.8998 86.408C45.5265 86.6107 45.2278 86.888 45.0038 87.24C44.7905 87.5813 44.6838 87.9707 44.6838 88.408V93H43.6918ZM52.8434 93.176C52.1501 93.176 51.5314 93.016 50.9874 92.696C50.4541 92.3653 50.0328 91.9013 49.7234 91.304C49.4248 90.696 49.2754 89.9813 49.2754 89.16C49.2754 88.36 49.4248 87.6613 49.7234 87.064C50.0328 86.4667 50.4541 86.0027 50.9874 85.672C51.5208 85.3307 52.1288 85.16 52.8114 85.16C53.5048 85.16 54.0914 85.336 54.5714 85.688C55.0621 86.0293 55.4354 86.4773 55.6914 87.032C55.9474 87.576 56.0754 88.152 56.0754 88.76V89.08H50.2514C50.2301 90.04 50.4541 90.8187 50.9234 91.416C51.4034 92.0027 52.0488 92.296 52.8594 92.296C53.4568 92.296 53.9581 92.1467 54.3634 91.848C54.7688 91.5387 55.0994 91.0853 55.3554 90.488L56.1554 90.952C55.4728 92.4347 54.3688 93.176 52.8434 93.176ZM50.3154 88.248H55.1154C55.0621 87.832 54.9288 87.4533 54.7154 87.112C54.5128 86.7707 54.2461 86.4987 53.9154 86.296C53.5954 86.0933 53.2274 85.992 52.8114 85.992C52.1608 85.992 51.6114 86.1947 51.1634 86.6C50.7261 86.9947 50.4434 87.544 50.3154 88.248ZM58.3701 93V85.336H59.3301V93H58.3701ZM58.8501 83.672C58.6474 83.672 58.4714 83.6027 58.3221 83.464C58.1727 83.3147 58.0981 83.1387 58.0981 82.936C58.0981 82.7227 58.1727 82.5467 58.3221 82.408C58.4714 82.2693 58.6474 82.2 58.8501 82.2C59.0527 82.2 59.2234 82.2693 59.3621 82.408C59.5007 82.5467 59.5701 82.7227 59.5701 82.936C59.5701 83.1387 59.5007 83.3147 59.3621 83.464C59.2234 83.6027 59.0527 83.672 58.8501 83.672ZM64.9654 96.456C63.5468 96.456 62.4801 95.9013 61.7654 94.792L62.5654 94.264C63.0988 95.1067 63.8988 95.528 64.9654 95.528C65.7548 95.528 66.3574 95.2667 66.7734 94.744C67.1894 94.232 67.3974 93.4587 67.3974 92.424V91.048C67.1308 91.464 66.7841 91.7947 66.3574 92.04C65.9308 92.2747 65.4454 92.392 64.9014 92.392C64.2508 92.392 63.6694 92.2427 63.1574 91.944C62.6561 91.6453 62.2561 91.224 61.9574 90.68C61.6694 90.136 61.5254 89.496 61.5254 88.76C61.5254 88.024 61.6694 87.3893 61.9574 86.856C62.2561 86.312 62.6561 85.8907 63.1574 85.592C63.6694 85.2933 64.2508 85.144 64.9014 85.144C65.4561 85.144 65.9521 85.272 66.3894 85.528C66.8268 85.7733 67.1788 86.1147 67.4454 86.552L67.4614 85.336H68.3574V92.424C68.3574 93.8107 68.0428 94.8293 67.4134 95.48C66.7948 96.1307 65.9788 96.456 64.9654 96.456ZM64.9494 91.496C65.4294 91.496 65.8561 91.384 66.2294 91.16C66.6028 90.9253 66.8961 90.6053 67.1094 90.2C67.3228 89.784 67.4294 89.304 67.4294 88.76C67.4294 88.216 67.3228 87.7413 67.1094 87.336C66.8961 86.9307 66.6028 86.616 66.2294 86.392C65.8561 86.1573 65.4294 86.04 64.9494 86.04C64.4801 86.04 64.0588 86.1573 63.6854 86.392C63.3228 86.616 63.0348 86.9307 62.8214 87.336C62.6081 87.7413 62.5014 88.216 62.5014 88.76C62.5014 89.304 62.6081 89.784 62.8214 90.2C63.0348 90.6053 63.3228 90.9253 63.6854 91.16C64.0588 91.384 64.4801 91.496 64.9494 91.496ZM70.7387 93V85.336H71.6507L71.6827 86.424C71.928 86.0613 72.2534 85.7573 72.6587 85.512C73.0747 85.2667 73.544 85.144 74.0667 85.144C74.888 85.144 75.5494 85.4053 76.0507 85.928C76.552 86.4507 76.8027 87.1973 76.8027 88.168V93H75.8427V88.312C75.8427 87.5653 75.6614 87.0053 75.2987 86.632C74.9467 86.2587 74.488 86.072 73.9227 86.072C73.496 86.072 73.112 86.168 72.7707 86.36C72.44 86.5413 72.1787 86.792 71.9867 87.112C71.8054 87.4213 71.7147 87.768 71.7147 88.152V93H70.7387ZM82.3278 93.176C81.6345 93.176 81.0158 93.016 80.4718 92.696C79.9385 92.3653 79.5171 91.9013 79.2078 91.304C78.9091 90.696 78.7598 89.9813 78.7598 89.16C78.7598 88.36 78.9091 87.6613 79.2078 87.064C79.5171 86.4667 79.9385 86.0027 80.4718 85.672C81.0051 85.3307 81.6131 85.16 82.2958 85.16C82.9891 85.16 83.5758 85.336 84.0558 85.688C84.5465 86.0293 84.9198 86.4773 85.1758 87.032C85.4318 87.576 85.5598 88.152 85.5598 88.76V89.08H79.7358C79.7145 90.04 79.9385 90.8187 80.4078 91.416C80.8878 92.0027 81.5331 92.296 82.3438 92.296C82.9411 92.296 83.4425 92.1467 83.8478 91.848C84.2531 91.5387 84.5838 91.0853 84.8398 90.488L85.6398 90.952C84.9571 92.4347 83.8531 93.176 82.3278 93.176ZM79.7998 88.248H84.5998C84.5465 87.832 84.4131 87.4533 84.1998 87.112C83.9971 86.7707 83.7305 86.4987 83.3998 86.296C83.0798 86.0933 82.7118 85.992 82.2958 85.992C81.6451 85.992 81.0958 86.1947 80.6478 86.6C80.2105 86.9947 79.9278 87.544 79.7998 88.248ZM87.5824 93V85.336H88.5104L88.5584 86.664C88.7718 86.216 89.1078 85.8533 89.5664 85.576C90.0358 85.288 90.5531 85.144 91.1184 85.144C91.2678 85.144 91.4171 85.1547 91.5664 85.176C91.7264 85.1867 91.8598 85.208 91.9664 85.24V86.184C91.8704 86.1627 91.7318 86.1413 91.5504 86.12C91.3798 86.0987 91.2038 86.088 91.0224 86.088C90.5744 86.088 90.1638 86.1947 89.7904 86.408C89.4171 86.6107 89.1184 86.888 88.8944 87.24C88.6811 87.5813 88.5744 87.9707 88.5744 88.408V93H87.5824ZM93.3414 95.304L93.0534 94.744C93.5014 94.616 93.8481 94.4187 94.0934 94.152C94.3494 93.896 94.4774 93.5867 94.4774 93.224C94.4774 92.968 94.4348 92.7707 94.3494 92.632C94.2961 92.7813 94.2001 92.904 94.0614 93C93.9334 93.1067 93.7894 93.16 93.6294 93.16C93.4054 93.16 93.2134 93.0853 93.0534 92.936C92.9041 92.7867 92.8294 92.5947 92.8294 92.36C92.8294 92.1253 92.9148 91.9387 93.0854 91.8C93.2561 91.6613 93.4588 91.5813 93.6934 91.56C94.0988 91.5387 94.4401 91.6827 94.7174 91.992C95.0054 92.3013 95.1494 92.7227 95.1494 93.256C95.1494 93.7787 94.9841 94.2107 94.6534 94.552C94.3334 94.8933 93.8961 95.144 93.3414 95.304ZM104.983 93V82.728H101.303V81.8H109.671V82.728H105.991V93H104.983ZM113.609 93.176C112.926 93.176 112.318 93.0053 111.785 92.664C111.251 92.3227 110.83 91.8533 110.521 91.256C110.211 90.648 110.057 89.9493 110.057 89.16C110.057 88.3707 110.211 87.6773 110.521 87.08C110.83 86.472 111.251 85.9973 111.785 85.656C112.318 85.3147 112.926 85.144 113.609 85.144C114.302 85.144 114.915 85.3147 115.449 85.656C115.982 85.9973 116.403 86.472 116.713 87.08C117.022 87.6773 117.177 88.3707 117.177 89.16C117.177 89.9493 117.022 90.648 116.713 91.256C116.403 91.8533 115.982 92.3227 115.449 92.664C114.915 93.0053 114.302 93.176 113.609 93.176ZM113.609 92.264C114.11 92.264 114.553 92.136 114.937 91.88C115.331 91.624 115.641 91.2667 115.865 90.808C116.089 90.3387 116.201 89.7893 116.201 89.16C116.201 88.5307 116.089 87.9867 115.865 87.528C115.641 87.0587 115.331 86.696 114.937 86.44C114.553 86.184 114.11 86.056 113.609 86.056C112.862 86.056 112.243 86.3387 111.753 86.904C111.273 87.4587 111.033 88.2107 111.033 89.16C111.033 90.0987 111.273 90.8507 111.753 91.416C112.243 91.9813 112.862 92.264 113.609 92.264ZM121.706 93.176C120.895 93.176 120.239 92.9147 119.738 92.392C119.236 91.8693 118.986 91.1227 118.986 90.152V85.336H119.946V90.024C119.946 90.7707 120.122 91.3307 120.474 91.704C120.836 92.0773 121.3 92.264 121.866 92.264C122.516 92.264 123.044 92.0613 123.45 91.656C123.855 91.2507 124.058 90.7547 124.058 90.168V85.336H125.034V92.984H124.122L124.09 91.912C123.866 92.264 123.546 92.5627 123.13 92.808C122.714 93.0533 122.239 93.176 121.706 93.176ZM127.411 93V85.336H128.339L128.387 86.664C128.6 86.216 128.936 85.8533 129.395 85.576C129.864 85.288 130.381 85.144 130.947 85.144C131.096 85.144 131.245 85.1547 131.395 85.176C131.555 85.1867 131.688 85.208 131.795 85.24V86.184C131.699 86.1627 131.56 86.1413 131.379 86.12C131.208 86.0987 131.032 86.088 130.851 86.088C130.403 86.088 129.992 86.1947 129.619 86.408C129.245 86.6107 128.947 86.888 128.723 87.24C128.509 87.5813 128.403 87.9707 128.403 88.408V93H127.411ZM133.362 89.416V88.456H137.874V89.416H133.362ZM140.336 93V81.784H145.216C146.272 81.784 147.072 82.0293 147.616 82.52C148.171 83.0107 148.448 83.7413 148.448 84.712C148.448 85.6827 148.171 86.4133 147.616 86.904C147.072 87.3947 146.272 87.64 145.216 87.64H141.312V93H140.336ZM141.312 86.696H145.136C145.904 86.696 146.475 86.536 146.848 86.216C147.232 85.896 147.424 85.3947 147.424 84.712C147.424 84.0293 147.232 83.528 146.848 83.208C146.475 82.888 145.904 82.728 145.136 82.728H141.312V86.696ZM150.223 93V81.448H151.199V86.424C151.423 86.0613 151.738 85.7573 152.143 85.512C152.559 85.2667 153.028 85.144 153.551 85.144C154.372 85.144 155.034 85.4053 155.535 85.928C156.036 86.4507 156.287 87.1973 156.287 88.168V93H155.327V88.312C155.327 87.5653 155.146 87.0053 154.783 86.632C154.431 86.2587 153.972 86.072 153.407 86.072C152.98 86.072 152.596 86.168 152.255 86.36C151.924 86.5413 151.663 86.792 151.471 87.112C151.29 87.4213 151.199 87.768 151.199 88.152V93H150.223ZM161.796 93.176C161.114 93.176 160.506 93.0053 159.972 92.664C159.439 92.3227 159.018 91.8533 158.708 91.256C158.399 90.648 158.244 89.9493 158.244 89.16C158.244 88.3707 158.399 87.6773 158.708 87.08C159.018 86.472 159.439 85.9973 159.972 85.656C160.506 85.3147 161.114 85.144 161.796 85.144C162.49 85.144 163.103 85.3147 163.636 85.656C164.17 85.9973 164.591 86.472 164.9 87.08C165.21 87.6773 165.364 88.3707 165.364 89.16C165.364 89.9493 165.21 90.648 164.9 91.256C164.591 91.8533 164.17 92.3227 163.636 92.664C163.103 93.0053 162.49 93.176 161.796 93.176ZM161.796 92.264C162.298 92.264 162.74 92.136 163.124 91.88C163.519 91.624 163.828 91.2667 164.052 90.808C164.276 90.3387 164.388 89.7893 164.388 89.16C164.388 88.5307 164.276 87.9867 164.052 87.528C163.828 87.0587 163.519 86.696 163.124 86.44C162.74 86.184 162.298 86.056 161.796 86.056C161.05 86.056 160.431 86.3387 159.94 86.904C159.46 87.4587 159.22 88.2107 159.22 89.16C159.22 90.0987 159.46 90.8507 159.94 91.416C160.431 91.9813 161.05 92.264 161.796 92.264ZM170.293 93.176C169.611 93.176 169.099 93.032 168.757 92.744C168.416 92.456 168.245 91.9387 168.245 91.192V86.232H166.581V85.336H168.245V82.52H169.205V85.336H171.541V86.232H169.205V91.032C169.205 91.512 169.307 91.8427 169.509 92.024C169.712 92.1947 170.027 92.28 170.453 92.28C170.635 92.28 170.827 92.2533 171.029 92.2C171.232 92.1467 171.403 92.088 171.541 92.024V92.968C171.392 93.0213 171.2 93.0693 170.965 93.112C170.731 93.1547 170.507 93.176 170.293 93.176ZM176.452 93.176C175.77 93.176 175.162 93.0053 174.628 92.664C174.095 92.3227 173.674 91.8533 173.364 91.256C173.055 90.648 172.9 89.9493 172.9 89.16C172.9 88.3707 173.055 87.6773 173.364 87.08C173.674 86.472 174.095 85.9973 174.628 85.656C175.162 85.3147 175.77 85.144 176.452 85.144C177.146 85.144 177.759 85.3147 178.292 85.656C178.826 85.9973 179.247 86.472 179.556 87.08C179.866 87.6773 180.02 88.3707 180.02 89.16C180.02 89.9493 179.866 90.648 179.556 91.256C179.247 91.8533 178.826 92.3227 178.292 92.664C177.759 93.0053 177.146 93.176 176.452 93.176ZM176.452 92.264C176.954 92.264 177.396 92.136 177.78 91.88C178.175 91.624 178.484 91.2667 178.708 90.808C178.932 90.3387 179.044 89.7893 179.044 89.16C179.044 88.5307 178.932 87.9867 178.708 87.528C178.484 87.0587 178.175 86.696 177.78 86.44C177.396 86.184 176.954 86.056 176.452 86.056C175.706 86.056 175.087 86.3387 174.596 86.904C174.116 87.4587 173.876 88.2107 173.876 89.16C173.876 90.0987 174.116 90.8507 174.596 91.416C175.087 91.9813 175.706 92.264 176.452 92.264ZM189.066 93.176C188.383 93.176 187.764 93.0427 187.21 92.776C186.655 92.5093 186.207 92.1307 185.866 91.64L186.57 91.048C186.826 91.4427 187.172 91.7467 187.61 91.96C188.058 92.1733 188.554 92.28 189.098 92.28C189.62 92.28 190.063 92.168 190.426 91.944C190.799 91.7093 190.986 91.3467 190.986 90.856C190.986 90.4187 190.81 90.1147 190.458 89.944C190.106 89.7733 189.567 89.6133 188.842 89.464C188.394 89.368 187.967 89.2507 187.562 89.112C187.167 88.9733 186.847 88.7653 186.602 88.488C186.356 88.2 186.234 87.8053 186.234 87.304C186.234 86.8453 186.356 86.456 186.602 86.136C186.858 85.816 187.194 85.5707 187.61 85.4C188.026 85.2293 188.468 85.144 188.938 85.144C190.196 85.144 191.119 85.592 191.706 86.488L191.05 87.08C190.612 86.3867 189.914 86.04 188.954 86.04C188.399 86.04 187.972 86.1627 187.674 86.408C187.375 86.6427 187.226 86.936 187.226 87.288C187.226 87.6827 187.386 87.9653 187.706 88.136C188.036 88.296 188.543 88.4507 189.226 88.6C189.706 88.7067 190.154 88.84 190.57 89C190.996 89.16 191.338 89.384 191.594 89.672C191.85 89.96 191.978 90.36 191.978 90.872C191.978 91.5547 191.711 92.1093 191.178 92.536C190.655 92.9627 189.951 93.176 189.066 93.176ZM196.89 93.176C196.207 93.176 195.599 93.0053 195.066 92.664C194.533 92.3227 194.111 91.8533 193.802 91.256C193.493 90.648 193.338 89.9493 193.338 89.16C193.338 88.3707 193.493 87.6773 193.802 87.08C194.111 86.472 194.533 85.9973 195.066 85.656C195.599 85.3147 196.207 85.144 196.89 85.144C197.583 85.144 198.197 85.3147 198.73 85.656C199.263 85.9973 199.685 86.472 199.994 87.08C200.303 87.6773 200.458 88.3707 200.458 89.16C200.458 89.9493 200.303 90.648 199.994 91.256C199.685 91.8533 199.263 92.3227 198.73 92.664C198.197 93.0053 197.583 93.176 196.89 93.176ZM196.89 92.264C197.391 92.264 197.834 92.136 198.218 91.88C198.613 91.624 198.922 91.2667 199.146 90.808C199.37 90.3387 199.482 89.7893 199.482 89.16C199.482 88.5307 199.37 87.9867 199.146 87.528C198.922 87.0587 198.613 86.696 198.218 86.44C197.834 86.184 197.391 86.056 196.89 86.056C196.143 86.056 195.525 86.3387 195.034 86.904C194.554 87.4587 194.314 88.2107 194.314 89.16C194.314 90.0987 194.554 90.8507 195.034 91.416C195.525 91.9813 196.143 92.264 196.89 92.264ZM205.515 93.176C204.832 93.176 204.224 93.0107 203.691 92.68C203.158 92.3387 202.736 91.864 202.427 91.256C202.118 90.648 201.963 89.9493 201.963 89.16C201.963 88.3707 202.118 87.6773 202.427 87.08C202.736 86.472 203.158 86.0027 203.691 85.672C204.224 85.3307 204.832 85.16 205.515 85.16C206.059 85.16 206.56 85.272 207.019 85.496C207.488 85.7093 207.888 86.0293 208.219 86.456L207.451 87.032C206.971 86.392 206.326 86.072 205.515 86.072C204.768 86.072 204.15 86.3547 203.659 86.92C203.179 87.4747 202.939 88.2213 202.939 89.16C202.939 90.0987 203.179 90.8507 203.659 91.416C204.15 91.9813 204.768 92.264 205.515 92.264C206.326 92.264 206.971 91.944 207.451 91.304L208.219 91.88C207.536 92.744 206.635 93.176 205.515 93.176ZM210.433 93V85.336H211.393V93H210.433ZM210.913 83.672C210.71 83.672 210.534 83.6027 210.385 83.464C210.235 83.3147 210.161 83.1387 210.161 82.936C210.161 82.7227 210.235 82.5467 210.385 82.408C210.534 82.2693 210.71 82.2 210.913 82.2C211.115 82.2 211.286 82.2693 211.425 82.408C211.563 82.5467 211.633 82.7227 211.633 82.936C211.633 83.1387 211.563 83.3147 211.425 83.464C211.286 83.6027 211.115 83.672 210.913 83.672ZM216.068 93.144C215.321 93.1547 214.713 92.984 214.244 92.632C213.785 92.28 213.556 91.768 213.556 91.096C213.556 90.584 213.727 90.136 214.068 89.752C214.42 89.368 214.863 89.0693 215.396 88.856C215.94 88.632 216.5 88.52 217.076 88.52C217.865 88.52 218.489 88.7067 218.948 89.08V87.768C218.948 87.0533 218.799 86.5893 218.5 86.376C218.201 86.152 217.721 86.04 217.06 86.04C216.633 86.04 216.159 86.12 215.636 86.28C215.113 86.4293 214.671 86.6213 214.308 86.856L213.844 86.088C214.26 85.8213 214.761 85.5973 215.348 85.416C215.945 85.2347 216.516 85.144 217.06 85.144C218.031 85.144 218.745 85.3307 219.204 85.704C219.663 86.0773 219.892 86.7653 219.892 87.768V92.008C219.892 92.2107 219.945 92.328 220.052 92.36C220.169 92.3813 220.42 92.3547 220.804 92.28V92.968C220.697 93.0107 220.553 93.048 220.372 93.08C220.191 93.1227 220.02 93.144 219.86 93.144C219.497 93.144 219.263 93.0693 219.156 92.92C219.049 92.7707 218.985 92.488 218.964 92.072C218.633 92.4347 218.196 92.7013 217.652 92.872C217.108 93.0427 216.58 93.1333 216.068 93.144ZM216.116 92.264C216.628 92.2533 217.103 92.1733 217.54 92.024C217.988 91.8747 218.34 91.6613 218.596 91.384C218.863 91.096 218.985 90.7493 218.964 90.344C218.932 90.0133 218.751 89.768 218.42 89.608C218.089 89.4373 217.663 89.3573 217.14 89.368C216.703 89.368 216.281 89.4427 215.876 89.592C215.471 89.7413 215.14 89.9493 214.884 90.216C214.639 90.472 214.516 90.7707 214.516 91.112C214.516 91.5067 214.665 91.8 214.964 91.992C215.263 92.1733 215.647 92.264 216.116 92.264ZM222.582 93V81.448H223.558V93H222.582ZM230.426 93V85.336H231.338L231.386 86.536C231.557 86.1413 231.84 85.8107 232.234 85.544C232.629 85.2773 233.077 85.144 233.578 85.144C234.197 85.144 234.704 85.288 235.098 85.576C235.504 85.864 235.776 86.264 235.914 86.776C236.096 86.3067 236.384 85.9173 236.778 85.608C237.173 85.2987 237.68 85.144 238.298 85.144C239.088 85.144 239.706 85.3947 240.154 85.896C240.602 86.3867 240.826 87.128 240.826 88.12V93H239.85V88.264C239.85 87.4533 239.696 86.8827 239.386 86.552C239.077 86.2213 238.661 86.056 238.138 86.056C237.733 86.056 237.376 86.1627 237.066 86.376C236.768 86.5787 236.533 86.8507 236.362 87.192C236.202 87.5227 236.122 87.8853 236.122 88.28V93H235.146V88.264C235.146 87.4533 234.986 86.8827 234.666 86.552C234.357 86.2213 233.941 86.056 233.418 86.056C233.013 86.056 232.656 86.1627 232.346 86.376C232.048 86.5893 231.813 86.8667 231.642 87.208C231.482 87.5387 231.402 87.8907 231.402 88.264V93H230.426ZM246.343 93.176C245.65 93.176 245.031 93.016 244.487 92.696C243.954 92.3653 243.533 91.9013 243.223 91.304C242.925 90.696 242.775 89.9813 242.775 89.16C242.775 88.36 242.925 87.6613 243.223 87.064C243.533 86.4667 243.954 86.0027 244.487 85.672C245.021 85.3307 245.629 85.16 246.311 85.16C247.005 85.16 247.591 85.336 248.071 85.688C248.562 86.0293 248.935 86.4773 249.191 87.032C249.447 87.576 249.575 88.152 249.575 88.76V89.08H243.751C243.73 90.04 243.954 90.8187 244.423 91.416C244.903 92.0027 245.549 92.296 246.359 92.296C246.957 92.296 247.458 92.1467 247.863 91.848C248.269 91.5387 248.599 91.0853 248.855 90.488L249.655 90.952C248.973 92.4347 247.869 93.176 246.343 93.176ZM243.815 88.248H248.615C248.562 87.832 248.429 87.4533 248.215 87.112C248.013 86.7707 247.746 86.4987 247.415 86.296C247.095 86.0933 246.727 85.992 246.311 85.992C245.661 85.992 245.111 86.1947 244.663 86.6C244.226 86.9947 243.943 87.544 243.815 88.248ZM254.718 93.176C254.035 93.176 253.427 93.0107 252.894 92.68C252.361 92.3387 251.939 91.8693 251.63 91.272C251.321 90.664 251.166 89.96 251.166 89.16C251.166 88.36 251.321 87.6613 251.63 87.064C251.939 86.4667 252.361 86.0027 252.894 85.672C253.427 85.3307 254.035 85.16 254.718 85.16C255.294 85.16 255.806 85.2987 256.254 85.576C256.702 85.8427 257.059 86.2107 257.326 86.68V81.448H258.302V93H257.406L257.39 91.592C257.113 92.0827 256.745 92.472 256.286 92.76C255.827 93.0373 255.305 93.176 254.718 93.176ZM254.75 92.264C255.251 92.264 255.694 92.136 256.078 91.88C256.473 91.624 256.782 91.2667 257.006 90.808C257.23 90.3387 257.342 89.7893 257.342 89.16C257.342 88.5307 257.23 87.9867 257.006 87.528C256.782 87.0693 256.473 86.712 256.078 86.456C255.694 86.2 255.251 86.072 254.75 86.072C254.249 86.072 253.801 86.2 253.406 86.456C253.011 86.712 252.702 87.0693 252.478 87.528C252.254 87.9867 252.142 88.5307 252.142 89.16C252.142 89.7893 252.254 90.3387 252.478 90.808C252.702 91.2667 253.011 91.624 253.406 91.88C253.801 92.136 254.249 92.264 254.75 92.264ZM260.964 93V85.336H261.924V93H260.964ZM261.444 83.672C261.241 83.672 261.065 83.6027 260.916 83.464C260.766 83.3147 260.692 83.1387 260.692 82.936C260.692 82.7227 260.766 82.5467 260.916 82.408C261.065 82.2693 261.241 82.2 261.444 82.2C261.646 82.2 261.817 82.2693 261.956 82.408C262.094 82.5467 262.164 82.7227 262.164 82.936C262.164 83.1387 262.094 83.3147 261.956 83.464C261.817 83.6027 261.646 83.672 261.444 83.672ZM266.599 93.144C265.853 93.1547 265.245 92.984 264.775 92.632C264.317 92.28 264.087 91.768 264.087 91.096C264.087 90.584 264.258 90.136 264.599 89.752C264.951 89.368 265.394 89.0693 265.927 88.856C266.471 88.632 267.031 88.52 267.607 88.52C268.397 88.52 269.021 88.7067 269.479 89.08V87.768C269.479 87.0533 269.33 86.5893 269.031 86.376C268.733 86.152 268.253 86.04 267.591 86.04C267.165 86.04 266.69 86.12 266.167 86.28C265.645 86.4293 265.202 86.6213 264.839 86.856L264.375 86.088C264.791 85.8213 265.293 85.5973 265.879 85.416C266.477 85.2347 267.047 85.144 267.591 85.144C268.562 85.144 269.277 85.3307 269.735 85.704C270.194 86.0773 270.423 86.7653 270.423 87.768V92.008C270.423 92.2107 270.477 92.328 270.583 92.36C270.701 92.3813 270.951 92.3547 271.335 92.28V92.968C271.229 93.0107 271.085 93.048 270.903 93.08C270.722 93.1227 270.551 93.144 270.391 93.144C270.029 93.144 269.794 93.0693 269.687 92.92C269.581 92.7707 269.517 92.488 269.495 92.072C269.165 92.4347 268.727 92.7013 268.183 92.872C267.639 93.0427 267.111 93.1333 266.599 93.144ZM266.647 92.264C267.159 92.2533 267.634 92.1733 268.071 92.024C268.519 91.8747 268.871 91.6613 269.127 91.384C269.394 91.096 269.517 90.7493 269.495 90.344C269.463 90.0133 269.282 89.768 268.951 89.608C268.621 89.4373 268.194 89.3573 267.671 89.368C267.234 89.368 266.813 89.4427 266.407 89.592C266.002 89.7413 265.671 89.9493 265.415 90.216C265.17 90.472 265.047 90.7707 265.047 91.112C265.047 91.5067 265.197 91.8 265.495 91.992C265.794 92.1733 266.178 92.264 266.647 92.264ZM273.882 93.176C273.626 93.176 273.412 93.0907 273.242 92.92C273.071 92.7387 272.986 92.5307 272.986 92.296C272.986 92.0507 273.071 91.8427 273.242 91.672C273.412 91.4907 273.626 91.4 273.882 91.4C274.127 91.4 274.335 91.4907 274.506 91.672C274.676 91.8427 274.762 92.0507 274.762 92.296C274.762 92.5307 274.676 92.7387 274.506 92.92C274.335 93.0907 274.127 93.176 273.882 93.176Z" fill="black"/>
</svg>
