<svg width="18" height="18" viewBox="0 0 18 18" fill="none" xmlns="http://www.w3.org/2000/svg">
<mask id="mask0_103_2155" style="mask-type:alpha" maskUnits="userSpaceOnUse" x="0" y="0" width="18" height="18">
<rect width="18" height="18" fill="#D9D9D9"/>
</mask>
<g mask="url(#mask0_103_2155)">
<path d="M3.75 15.75C3.3375 15.75 2.98438 15.6031 2.69063 15.3094C2.39688 15.0156 2.25 14.6625 2.25 14.25V3.75C2.25 3.3375 2.39688 2.98438 2.69063 2.69063C2.98438 2.39688 3.3375 2.25 3.75 2.25H14.25C14.6625 2.25 15.0156 2.39688 15.3094 2.69063C15.6031 2.98438 15.75 3.3375 15.75 3.75V14.25C15.75 14.6625 15.6031 15.0156 15.3094 15.3094C15.0156 15.6031 14.6625 15.75 14.25 15.75H3.75ZM4.5 9.43125L7.5 6.43125L10.5 9.43125L13.5 6.43125L14.25 7.18125V3.75H3.75V8.68125L4.5 9.43125ZM3.75 14.25H14.25V9.3L13.5 8.55L10.5 11.55L7.5 8.55L4.5 11.55L3.75 10.8V14.25ZM3.75 14.25V9.3V10.8V3.75V14.25Z" fill="white"/>
</g>
</svg>
