<svg width="36" height="36" viewBox="0 0 36 36" fill="none" xmlns="http://www.w3.org/2000/svg">
<mask id="mask0_159_1842" style="mask-type:alpha" maskUnits="userSpaceOnUse" x="6" y="6" width="24" height="24">
<rect x="6" y="6" width="24" height="24" fill="#D9D9D9"/>
</mask>
<g mask="url(#mask0_159_1842)">
<path d="M18 28C16.6111 28 15.3083 27.7375 14.0917 27.2125C12.875 26.6875 11.8153 25.9736 10.9125 25.0708C10.0097 24.1681 9.29861 23.1056 8.77918 21.8833C8.25973 20.6611 8 19.3556 8 17.9667C8 16.5722 8.25973 15.2708 8.77918 14.0625C9.29861 12.8542 10.0097 11.7986 10.9125 10.8958C11.8153 9.99306 12.875 9.28473 14.0917 8.77083C15.3083 8.25694 16.6111 8 18 8C19.3945 8 20.6986 8.25694 21.9125 8.77083C23.1264 9.28473 24.1847 9.99306 25.0875 10.8958C25.9903 11.7986 26.7014 12.8542 27.2208 14.0625C27.7403 15.2708 28 16.5722 28 17.9667C28 19.3556 27.7403 20.6611 27.2208 21.8833C26.7014 23.1056 25.9903 24.1681 25.0875 25.0708C24.1847 25.9736 23.1264 26.6875 21.9125 27.2125C20.6986 27.7375 19.3945 28 18 28ZM18 26.35C18.5333 25.75 18.9833 25.0833 19.35 24.35C19.7167 23.6167 20.0167 22.7722 20.25 21.8167H15.7667C15.9889 22.7278 16.2833 23.5583 16.65 24.3084C17.0167 25.0584 17.4667 25.7389 18 26.35ZM15.7167 26.0167C15.3389 25.4111 15.0125 24.7653 14.7375 24.0792C14.4625 23.3931 14.2333 22.6389 14.05 21.8167H10.5667C11.15 22.8833 11.8403 23.7445 12.6375 24.4C13.4347 25.0556 14.4611 25.5945 15.7167 26.0167ZM20.3 26C21.4111 25.6445 22.407 25.1083 23.2875 24.3917C24.1681 23.675 24.8834 22.8167 25.4334 21.8167H21.9667C21.7722 22.6278 21.5403 23.3764 21.2708 24.0625C21.0014 24.7486 20.6778 25.3945 20.3 26ZM9.95 20.15H13.7333C13.6833 19.7389 13.6514 19.3597 13.6375 19.0125C13.6236 18.6653 13.6167 18.3167 13.6167 17.9667C13.6167 17.5722 13.6264 17.2125 13.6458 16.8875C13.6653 16.5625 13.7 16.2111 13.75 15.8333H9.95C9.84443 16.2111 9.77082 16.5597 9.72915 16.8792C9.68748 17.1986 9.66665 17.5611 9.66665 17.9667C9.66665 18.3722 9.68748 18.7431 9.72915 19.0792C9.77082 19.4153 9.84443 19.7722 9.95 20.15ZM15.4333 20.15H20.5834C20.6445 19.6945 20.6847 19.3042 20.7042 18.9792C20.7236 18.6542 20.7334 18.3167 20.7334 17.9667C20.7334 17.6278 20.7236 17.3014 20.7042 16.9875C20.6847 16.6736 20.6445 16.2889 20.5834 15.8333H15.4333C15.3722 16.2889 15.3319 16.6736 15.3125 16.9875C15.2931 17.3014 15.2833 17.6278 15.2833 17.9667C15.2833 18.3167 15.2931 18.6542 15.3125 18.9792C15.3319 19.3042 15.3722 19.6945 15.4333 20.15ZM22.25 20.15H26.05C26.1556 19.7722 26.2292 19.4153 26.2709 19.0792C26.3125 18.7431 26.3334 18.3722 26.3334 17.9667C26.3334 17.5611 26.3125 17.1986 26.2709 16.8792C26.2292 16.5597 26.1556 16.2111 26.05 15.8333H22.2667C22.3167 16.3333 22.3514 16.7403 22.3708 17.0542C22.3903 17.3681 22.4 17.6722 22.4 17.9667C22.4 18.3278 22.3875 18.6708 22.3625 18.9958C22.3375 19.3208 22.3 19.7056 22.25 20.15ZM21.95 14.1667H25.4334C24.9056 13.1222 24.2014 12.2417 23.3209 11.525C22.4403 10.8083 21.4278 10.2944 20.2833 9.98333C20.6611 10.5778 20.9847 11.2125 21.2542 11.8875C21.5236 12.5625 21.7556 13.3222 21.95 14.1667ZM15.7667 14.1667H20.2667C20.0778 13.3333 19.7861 12.5333 19.3917 11.7667C18.9972 11 18.5333 10.3055 18 9.68333C17.5 10.1833 17.075 10.7861 16.725 11.4917C16.375 12.1972 16.0556 13.0889 15.7667 14.1667ZM10.5667 14.1667H14.0667C14.2389 13.3556 14.4569 12.6153 14.7208 11.9458C14.9847 11.2764 15.3111 10.6278 15.7 9.99998C14.5556 10.3111 13.5514 10.8194 12.6875 11.525C11.8236 12.2306 11.1167 13.1111 10.5667 14.1667Z" fill="black"/>
</g>
</svg>
