<svg width="171" height="49" viewBox="0 0 171 49" fill="none" xmlns="http://www.w3.org/2000/svg">
<path d="M3.4375 47.6875C3.14583 47.5625 2.83333 47.3333 2.5 47C2.1875 46.6667 1.88542 46.2708 1.59375 45.8125C1.30208 45.3542 1.0625 44.8542 0.875 44.3125C0.6875 43.75 0.59375 43.1875 0.59375 42.625C0.59375 41.7917 0.885417 40.9688 1.46875 40.1562C1.59375 40.0104 1.73958 39.8229 1.90625 39.5938C2.09375 39.3646 2.30208 39.1458 2.53125 38.9375C2.78125 38.7083 3.04167 38.5208 3.3125 38.375C3.58333 38.2292 3.86458 38.1562 4.15625 38.1562C4.28125 38.1562 4.40625 38.1771 4.53125 38.2188C4.65625 38.2396 4.77083 38.2917 4.875 38.375C5.08333 38.5 5.28125 38.7812 5.46875 39.2188C5.65625 39.6562 5.86458 40.1146 6.09375 40.5938C6.32292 41.0521 6.58333 41.4688 6.875 41.8438C7.16667 42.2188 7.5 42.4062 7.875 42.4062C8.58333 42.4062 9.33333 42.0625 10.125 41.375C10.9167 40.6667 11.7188 39.7083 12.5312 38.5C13.3438 37.2917 14.1667 35.8854 15 34.2812C15.8333 32.6562 16.6458 30.9271 17.4375 29.0938C18.25 27.2604 19.0312 25.3646 19.7812 23.4062C20.5312 21.4479 21.2396 19.5312 21.9062 17.6562C22.5938 15.7812 23.2188 13.9896 23.7812 12.2812C24.3646 10.5729 24.8646 9.05208 25.2812 7.71875C25.7188 6.36458 26.0729 5.25 26.3438 4.375C26.6146 3.5 26.7812 2.94792 26.8438 2.71875C27.0312 2.07292 27.3542 1.60417 27.8125 1.3125C28.2917 1.02083 28.8021 0.875 29.3438 0.875C30.1354 0.875 30.7396 1.125 31.1562 1.625C31.5729 2.10417 31.7812 2.98958 31.7812 4.28125C31.7812 4.48958 31.7708 4.70833 31.75 4.9375C31.75 5.16667 31.7396 5.40625 31.7188 5.65625C31.6562 6.26042 31.5104 7.10417 31.2812 8.1875C31.0729 9.25 30.7812 10.4792 30.4062 11.875C30.0312 13.2708 29.5833 14.8021 29.0625 16.4688C28.5417 18.1354 27.9583 19.8646 27.3125 21.6562C30.2917 19.1146 32.9271 16.8958 35.2188 15C37.5312 13.1042 39.5521 11.4792 41.2812 10.125C43.0312 8.75 44.5208 7.625 45.75 6.75C46.9792 5.85417 48.0104 5.15625 48.8438 4.65625C49.6979 4.13542 50.375 3.77083 50.875 3.5625C51.375 3.35417 51.7708 3.25 52.0625 3.25C52.375 3.25 52.6458 3.33333 52.875 3.5C53.1042 3.66667 53.2917 3.86458 53.4375 4.09375C53.6042 4.32292 53.7188 4.5625 53.7812 4.8125C53.8646 5.04167 53.9062 5.22917 53.9062 5.375C53.9062 5.72917 53.8125 6.07292 53.625 6.40625C53.4583 6.71875 53.1979 6.98958 52.8438 7.21875C51.3854 8.23958 49.8542 9.36458 48.25 10.5938C46.6458 11.8229 45.0312 13.0938 43.4062 14.4062C41.8021 15.6979 40.2188 17 38.6562 18.3125C37.0938 19.625 35.6146 20.8646 34.2188 22.0312C32.8438 23.1979 31.5833 24.25 30.4375 25.1875C29.3125 26.125 28.3646 26.8854 27.5938 27.4688C28.6979 28.9479 29.7604 30.3542 30.7812 31.6875C31.8229 33.0208 32.8125 34.3229 33.75 35.5938C34.7083 36.8438 35.625 38.0729 36.5 39.2812C37.3958 40.4896 38.2396 41.7083 39.0312 42.9375C39.3021 43.3542 39.4896 43.7708 39.5938 44.1875C39.7188 44.5833 39.7812 44.9479 39.7812 45.2812C39.7812 45.8438 39.6562 46.3333 39.4062 46.75C39.1562 47.1667 38.8542 47.5104 38.5 47.7812C38.1667 48.0521 37.8125 48.25 37.4375 48.375C37.0833 48.5208 36.7812 48.5938 36.5312 48.5938C35.8438 48.5938 35.1875 48.3438 34.5625 47.8438C33.9583 47.3646 33.4375 46.75 33 46C32.3542 45.1458 31.8125 44.4167 31.375 43.8125C30.9583 43.2083 30.5729 42.6458 30.2188 42.125C29.8646 41.5833 29.5104 41.0312 29.1562 40.4688C28.8229 39.9062 28.3958 39.2292 27.875 38.4375C27.375 37.625 26.75 36.6562 26 35.5312C25.25 34.4062 24.3125 33.0104 23.1875 31.3438C22.0833 33.6354 20.8958 35.8229 19.625 37.9062C18.375 39.9896 17.0521 41.8229 15.6562 43.4062C14.2604 44.9896 12.8021 46.2396 11.2812 47.1562C9.76042 48.0938 8.19792 48.5625 6.59375 48.5625C6.03125 48.5625 5.47917 48.4896 4.9375 48.3438C4.41667 48.1979 3.91667 47.9792 3.4375 47.6875ZM55.125 18.9688C55.125 18.4896 55.2083 18 55.375 17.5C55.5625 16.9792 55.8333 16.5104 56.1875 16.0938C56.5417 15.6771 56.9792 15.3333 57.5 15.0625C58.0417 14.7917 58.6771 14.6562 59.4062 14.6562C60.6146 14.6562 61.4583 14.8958 61.9375 15.375C62.4167 15.8333 62.6562 16.4167 62.6562 17.125C62.6562 17.5208 62.5729 17.9583 62.4062 18.4375C62.2604 18.9167 62.0312 19.3646 61.7188 19.7812C61.4062 20.1771 61 20.5104 60.5 20.7812C60 21.0521 59.4062 21.1875 58.7188 21.1875C57.4271 21.1875 56.5208 20.9896 56 20.5938C55.4792 20.1771 55.1875 19.6354 55.125 18.9688ZM51.6875 26C52.0417 25.4167 52.4479 25 52.9062 24.75C53.3646 24.5 53.8333 24.375 54.3125 24.375C55.1042 24.375 55.7812 24.6354 56.3438 25.1562C56.9271 25.6562 57.2188 26.3021 57.2188 27.0938C57.1979 27.2812 57.1667 27.4688 57.125 27.6562C57.1042 27.8438 57.0417 28.0312 56.9375 28.2188C56.6458 28.7604 56.4062 29.2188 56.2188 29.5938C56.0312 29.9688 55.8542 30.3229 55.6875 30.6562C55.5417 30.9688 55.3958 31.2812 55.25 31.5938C55.1042 31.9062 54.9271 32.2812 54.7188 32.7188C54.4688 33.2396 54.1875 33.8125 53.875 34.4375C53.5625 35.0417 53.2604 35.6667 52.9688 36.3125C52.6979 36.9583 52.4583 37.5938 52.25 38.2188C52.0625 38.8438 51.9688 39.4167 51.9688 39.9375C51.9688 40.5 52.1042 40.875 52.375 41.0625C52.6667 41.2292 53.0729 41.3125 53.5938 41.3125C54.1771 41.3125 54.7812 41.1875 55.4062 40.9375C56.0521 40.6875 56.6979 40.3646 57.3438 39.9688C57.9896 39.5729 58.625 39.125 59.25 38.625C59.875 38.1042 60.4583 37.5833 61 37.0625C61.5625 36.5417 62.0729 36.0417 62.5312 35.5625C63.0104 35.0833 63.4062 34.6562 63.7188 34.2812C64.1354 33.8854 64.5521 33.6875 64.9688 33.6875C65.3438 33.6875 65.6458 33.8542 65.875 34.1875C66.125 34.5208 66.25 34.9479 66.25 35.4688C66.25 35.9479 66.125 36.4583 65.875 37C65.6458 37.5417 65.2604 38.0521 64.7188 38.5312C63.6562 39.6146 62.5729 40.6562 61.4688 41.6562C60.3646 42.6354 59.2292 43.5104 58.0625 44.2812C56.9167 45.0312 55.7604 45.6354 54.5938 46.0938C53.4271 46.5521 52.25 46.7812 51.0625 46.7812C49.375 46.7812 48.0417 46.3542 47.0625 45.5C46.1042 44.625 45.625 43.2708 45.625 41.4375C45.625 40.4792 45.7604 39.5417 46.0312 38.625C46.3021 37.7083 46.625 36.8229 47 35.9688C47.375 35.0938 47.7708 34.2604 48.1875 33.4688C48.6042 32.6562 48.9583 31.8854 49.25 31.1562C49.3542 30.8854 49.5312 30.4688 49.7812 29.9062C50.0521 29.3438 50.3333 28.7708 50.625 28.1875C50.9583 27.5 51.3125 26.7708 51.6875 26ZM72.5 44.9375C72.5 43.9375 72.7188 42.9167 73.1562 41.875C73.6146 40.8333 74.1875 39.7604 74.875 38.6562C75.5625 37.5521 76.3125 36.4375 77.125 35.3125C77.9375 34.1667 78.7083 33 79.4375 31.8125C79.6458 31.4792 79.8125 31.1667 79.9375 30.875C80.0625 30.5625 80.125 30.25 80.125 29.9375C80.125 29.6042 80.0312 29.3333 79.8438 29.125C79.6562 28.8958 79.3854 28.7812 79.0312 28.7812C78.1771 28.7812 77.3542 28.9688 76.5625 29.3438C75.7708 29.6979 75.0104 30.1771 74.2812 30.7812C73.5521 31.3646 72.8542 32.0417 72.1875 32.8125C71.5417 33.5833 70.9271 34.3854 70.3438 35.2188C69.7812 36.0312 69.25 36.8438 68.75 37.6562C68.25 38.4688 67.7917 39.2083 67.375 39.875C67 40.5625 66.6562 41.3125 66.3438 42.125C66.0312 42.9375 65.6875 43.6875 65.3125 44.375C64.9583 45.0625 64.5521 45.6354 64.0938 46.0938C63.6354 46.5729 63.0625 46.8125 62.375 46.8125C61.625 46.8125 61.0312 46.5729 60.5938 46.0938C60.1562 45.6146 59.9375 45.0417 59.9375 44.375C59.9375 44 60.0729 43.4167 60.3438 42.625C60.6146 41.8333 60.9583 40.9167 61.375 39.875C61.8125 38.8125 62.3021 37.6875 62.8438 36.5C63.3854 35.3125 63.9167 34.1354 64.4375 32.9688C64.9792 31.8021 65.4792 30.7083 65.9375 29.6875C66.4167 28.6458 66.8125 27.7604 67.125 27.0312C67.5 26.1354 67.9896 25.4688 68.5938 25.0312C69.2188 24.5938 69.8333 24.375 70.4375 24.375C70.9583 24.375 71.4167 24.5729 71.8125 24.9688C72.2292 25.3438 72.4375 25.8958 72.4375 26.625C72.4375 27.1667 72.3125 27.7604 72.0625 28.4062C72.625 27.8854 73.2292 27.3229 73.875 26.7188C74.5208 26.1146 75.2188 25.5625 75.9688 25.0625C76.7396 24.5417 77.5938 24.1146 78.5312 23.7812C79.4688 23.4479 80.5208 23.2812 81.6875 23.2812C82.2708 23.2812 82.8229 23.3542 83.3438 23.5C83.8646 23.6458 84.3229 23.875 84.7188 24.1875C85.1354 24.5 85.4688 24.9062 85.7188 25.4062C85.9896 25.9062 86.1458 26.5104 86.1875 27.2188C86.6667 26.7396 87.1875 26.2708 87.75 25.8125C88.3125 25.3333 88.9167 24.9062 89.5625 24.5312C90.2292 24.1562 90.9479 23.8542 91.7188 23.625C92.4896 23.3958 93.3438 23.2812 94.2812 23.2812C94.9688 23.2812 95.625 23.3542 96.25 23.5C96.875 23.6458 97.4271 23.8958 97.9062 24.25C98.4062 24.5833 98.7917 25.0208 99.0625 25.5625C99.3542 26.1042 99.5 26.7708 99.5 27.5625C99.5 28.8125 99.2083 30 98.625 31.125C98.0625 32.25 97.3958 33.2812 96.625 34.2188C96.375 34.5312 96.0417 34.9271 95.625 35.4062C95.2083 35.8854 94.8021 36.3958 94.4062 36.9375C94.0104 37.4792 93.6667 38.0417 93.375 38.625C93.0833 39.1875 92.9375 39.7188 92.9375 40.2188C92.9375 40.6771 93.0729 40.9688 93.3438 41.0938C93.6354 41.2188 94.0104 41.2812 94.4688 41.2812C95.3438 41.2812 96.2917 41.0208 97.3125 40.5C98.3333 39.9792 99.3229 39.3542 100.281 38.625C101.26 37.875 102.167 37.1042 103 36.3125C103.854 35.5 104.531 34.8229 105.031 34.2812C105.156 34.1354 105.302 34.0312 105.469 33.9688C105.635 33.9062 105.802 33.875 105.969 33.875C106.344 33.875 106.677 34.0417 106.969 34.375C107.281 34.7083 107.438 35.1458 107.438 35.6875C107.438 36.1042 107.312 36.5625 107.062 37.0625C106.812 37.5625 106.385 38.0521 105.781 38.5312C104.656 39.6146 103.5 40.6562 102.312 41.6562C101.146 42.6354 99.9583 43.5104 98.75 44.2812C97.5625 45.0312 96.3646 45.6354 95.1562 46.0938C93.9688 46.5521 92.7812 46.7812 91.5938 46.7812C90.0521 46.7812 88.8021 46.4167 87.8438 45.6875C86.9062 44.9583 86.4375 43.8021 86.4375 42.2188C86.4375 41.1771 86.6354 40.1979 87.0312 39.2812C87.4271 38.3646 87.9167 37.4896 88.5 36.6562C89.0833 35.8021 89.6979 34.9792 90.3438 34.1875C90.9896 33.3958 91.5521 32.6042 92.0312 31.8125C92.2396 31.4792 92.4062 31.1667 92.5312 30.875C92.6562 30.5625 92.7188 30.25 92.7188 29.9375C92.7188 29.6042 92.625 29.3333 92.4375 29.125C92.25 28.8958 91.9792 28.7812 91.625 28.7812C90.7708 28.7812 89.9479 28.9688 89.1562 29.3438C88.3646 29.6979 87.6042 30.1771 86.875 30.7812C86.1458 31.3646 85.4479 32.0417 84.7812 32.8125C84.1354 33.5833 83.5208 34.3854 82.9375 35.2188C82.375 36.0312 81.8438 36.8438 81.3438 37.6562C80.8438 38.4688 80.3854 39.2083 79.9688 39.875C79.5938 40.5625 79.25 41.3125 78.9375 42.125C78.625 42.9375 78.2812 43.6875 77.9062 44.375C77.5521 45.0625 77.1458 45.6354 76.6875 46.0938C76.2292 46.5729 75.6562 46.8125 74.9688 46.8125C74.7188 46.8125 74.4479 46.7604 74.1562 46.6562C73.8646 46.5729 73.5938 46.4479 73.3438 46.2812C73.1146 46.1146 72.9167 45.9167 72.75 45.6875C72.6042 45.4583 72.5208 45.2083 72.5 44.9375ZM121.219 26.1562C121.219 26.8021 121.146 27.5208 121 28.3125C120.854 29.0833 120.615 29.8125 120.281 30.5C119.948 31.1875 119.521 31.7604 119 32.2188C118.479 32.6771 117.833 32.9062 117.062 32.9062C116.646 32.9062 116.375 32.8438 116.25 32.7188C116.146 32.5938 116.094 32.375 116.094 32.0625C116.094 31.875 116.094 31.6042 116.094 31.25C116.115 30.875 116.125 30.5208 116.125 30.1875C116.125 29.8125 116.073 29.5 115.969 29.25C115.865 28.9792 115.604 28.8438 115.188 28.8438C114.708 28.8438 114.167 29.0312 113.562 29.4062C112.979 29.7604 112.385 30.2292 111.781 30.8125C111.198 31.3958 110.625 32.0625 110.062 32.8125C109.5 33.5417 108.99 34.2917 108.531 35.0625C108.094 35.8125 107.74 36.5417 107.469 37.25C107.219 37.9583 107.094 38.5625 107.094 39.0625C107.094 39.7917 107.344 40.3646 107.844 40.7812C108.365 41.1979 109.062 41.4062 109.938 41.4062C110.875 41.4062 111.875 41.25 112.938 40.9375C114 40.625 115.052 40.2292 116.094 39.75C117.156 39.2708 118.177 38.75 119.156 38.1875C120.135 37.625 121.021 37.0938 121.812 36.5938C122.625 36.0729 123.302 35.6354 123.844 35.2812C124.385 34.9062 124.74 34.6771 124.906 34.5938C125.24 34.4271 125.552 34.3438 125.844 34.3438C126.094 34.3438 126.302 34.4062 126.469 34.5312C126.656 34.6354 126.802 34.7708 126.906 34.9375C127.01 35.0833 127.083 35.25 127.125 35.4375C127.167 35.6042 127.188 35.75 127.188 35.875C127.188 36.0625 127.167 36.2917 127.125 36.5625C127.083 36.8125 126.927 37.1042 126.656 37.4375C126.552 37.5625 126.208 37.8854 125.625 38.4062C125.062 38.9062 124.323 39.5 123.406 40.1875C122.51 40.875 121.469 41.6146 120.281 42.4062C119.115 43.1771 117.854 43.8854 116.5 44.5312C115.167 45.1771 113.781 45.7083 112.344 46.125C110.906 46.5625 109.49 46.7812 108.094 46.7812C107.031 46.7812 106.083 46.6146 105.25 46.2812C104.438 45.9479 103.75 45.5 103.188 44.9375C102.625 44.3542 102.198 43.6771 101.906 42.9062C101.615 42.1354 101.469 41.3229 101.469 40.4688C101.469 39.5312 101.688 38.4583 102.125 37.25C102.562 36.0208 103.167 34.7708 103.938 33.5C104.708 32.2292 105.615 30.9792 106.656 29.75C107.698 28.5208 108.823 27.4271 110.031 26.4688C111.26 25.5104 112.531 24.7396 113.844 24.1562C115.177 23.5729 116.521 23.2812 117.875 23.2812C118.333 23.2812 118.76 23.3333 119.156 23.4375C119.573 23.5417 119.927 23.7083 120.219 23.9375C120.531 24.1458 120.771 24.4375 120.938 24.8125C121.125 25.1875 121.219 25.6354 121.219 26.1562ZM120.781 41.0625C121.281 40 121.854 38.8229 122.5 37.5312C123.146 36.2188 123.792 34.9271 124.438 33.6562C125.104 32.3646 125.729 31.1458 126.312 30C126.896 28.8333 127.385 27.8438 127.781 27.0312L138.094 6.75C138.219 6.47917 138.406 6.21875 138.656 5.96875C138.927 5.71875 139.229 5.5 139.562 5.3125C139.896 5.10417 140.25 4.94792 140.625 4.84375C141 4.71875 141.375 4.65625 141.75 4.65625C142.667 4.65625 143.302 4.83333 143.656 5.1875C144.01 5.52083 144.188 5.9375 144.188 6.4375C144.188 6.89583 144.073 7.38542 143.844 7.90625C143.615 8.40625 143.354 8.875 143.062 9.3125C142.146 10.875 141.26 12.4583 140.406 14.0625C139.573 15.6458 138.729 17.25 137.875 18.875C137.042 20.4792 136.198 22.0833 135.344 23.6875C134.49 25.2708 133.594 26.8438 132.656 28.4062C133.24 27.8438 133.854 27.2604 134.5 26.6562C135.167 26.0521 135.885 25.5 136.656 25C137.427 24.5 138.271 24.0938 139.188 23.7812C140.104 23.4479 141.125 23.2812 142.25 23.2812C142.917 23.2812 143.552 23.3438 144.156 23.4688C144.76 23.5938 145.292 23.8021 145.75 24.0938C146.208 24.3646 146.573 24.75 146.844 25.25C147.115 25.7292 147.25 26.3229 147.25 27.0312C147.25 27.9688 147.104 28.8333 146.812 29.625C146.542 30.3958 146.188 31.1354 145.75 31.8438C145.312 32.5312 144.833 33.1979 144.312 33.8438C143.792 34.4688 143.292 35.1146 142.812 35.7812C142.354 36.4271 141.948 37.1042 141.594 37.8125C141.26 38.5208 141.052 39.2917 140.969 40.125C140.969 40.1667 140.958 40.2083 140.938 40.25C140.938 40.2917 140.938 40.3333 140.938 40.375C140.938 40.7917 141.073 41.0521 141.344 41.1562C141.635 41.2604 142 41.3125 142.438 41.3125C143 41.3125 143.604 41.2083 144.25 41C144.896 40.7708 145.542 40.4792 146.188 40.125C146.854 39.75 147.51 39.3333 148.156 38.875C148.823 38.4167 149.448 37.9479 150.031 37.4688C150.635 36.9896 151.188 36.5312 151.688 36.0938C152.188 35.6354 152.615 35.2396 152.969 34.9062C153.156 34.7396 153.354 34.6146 153.562 34.5312C153.771 34.4479 153.969 34.4062 154.156 34.4062C154.531 34.4062 154.844 34.5521 155.094 34.8438C155.365 35.1146 155.5 35.4896 155.5 35.9688C155.5 36.4062 155.344 36.9062 155.031 37.4688C154.74 38.0312 154.229 38.5938 153.5 39.1562C152.354 40.1562 151.188 41.1146 150 42.0312C148.812 42.9479 147.615 43.7604 146.406 44.4688C145.198 45.1771 143.99 45.7396 142.781 46.1562C141.594 46.5729 140.427 46.7812 139.281 46.7812C137.802 46.7812 136.615 46.4479 135.719 45.7812C134.823 45.0938 134.375 44.0208 134.375 42.5625C134.375 41.5 134.552 40.5 134.906 39.5625C135.281 38.6042 135.729 37.6875 136.25 36.8125C136.792 35.9167 137.365 35.0625 137.969 34.25C138.573 33.4167 139.104 32.6042 139.562 31.8125C139.812 31.4583 140 31.1354 140.125 30.8438C140.271 30.5312 140.344 30.1979 140.344 29.8438C140.344 29.5312 140.26 29.2812 140.094 29.0938C139.927 28.8854 139.667 28.7812 139.312 28.7812C138.083 28.7812 136.948 29.0833 135.906 29.6875C134.865 30.2917 133.906 31.0625 133.031 32C132.156 32.9375 131.344 33.9688 130.594 35.0938C129.844 36.1979 129.146 37.2604 128.5 38.2812C128.208 38.7396 127.906 39.2708 127.594 39.875C127.302 40.4583 126.99 41.0625 126.656 41.6875C126.344 42.3125 126.01 42.9375 125.656 43.5625C125.302 44.1667 124.927 44.7083 124.531 45.1875C124.156 45.6667 123.75 46.0521 123.312 46.3438C122.896 46.6354 122.458 46.7812 122 46.7812C121.271 46.7812 120.708 46.5625 120.312 46.125C119.917 45.7083 119.719 45.1771 119.719 44.5312C119.719 44.0521 119.802 43.5521 119.969 43.0312C120.135 42.4896 120.406 41.8333 120.781 41.0625ZM159.375 18.9688C159.375 18.4896 159.458 18 159.625 17.5C159.812 16.9792 160.083 16.5104 160.438 16.0938C160.792 15.6771 161.229 15.3333 161.75 15.0625C162.292 14.7917 162.927 14.6562 163.656 14.6562C164.865 14.6562 165.708 14.8958 166.188 15.375C166.667 15.8333 166.906 16.4167 166.906 17.125C166.906 17.5208 166.823 17.9583 166.656 18.4375C166.51 18.9167 166.281 19.3646 165.969 19.7812C165.656 20.1771 165.25 20.5104 164.75 20.7812C164.25 21.0521 163.656 21.1875 162.969 21.1875C161.677 21.1875 160.771 20.9896 160.25 20.5938C159.729 20.1771 159.438 19.6354 159.375 18.9688ZM155.938 26C156.292 25.4167 156.698 25 157.156 24.75C157.615 24.5 158.083 24.375 158.562 24.375C159.354 24.375 160.031 24.6354 160.594 25.1562C161.177 25.6562 161.469 26.3021 161.469 27.0938C161.448 27.2812 161.417 27.4688 161.375 27.6562C161.354 27.8438 161.292 28.0312 161.188 28.2188C160.896 28.7604 160.656 29.2188 160.469 29.5938C160.281 29.9688 160.104 30.3229 159.938 30.6562C159.792 30.9688 159.646 31.2812 159.5 31.5938C159.354 31.9062 159.177 32.2812 158.969 32.7188C158.719 33.2396 158.438 33.8125 158.125 34.4375C157.812 35.0417 157.51 35.6667 157.219 36.3125C156.948 36.9583 156.708 37.5938 156.5 38.2188C156.312 38.8438 156.219 39.4167 156.219 39.9375C156.219 40.5 156.354 40.875 156.625 41.0625C156.917 41.2292 157.323 41.3125 157.844 41.3125C158.427 41.3125 159.031 41.1875 159.656 40.9375C160.302 40.6875 160.948 40.3646 161.594 39.9688C162.24 39.5729 162.875 39.125 163.5 38.625C164.125 38.1042 164.708 37.5833 165.25 37.0625C165.812 36.5417 166.323 36.0417 166.781 35.5625C167.26 35.0833 167.656 34.6562 167.969 34.2812C168.385 33.8854 168.802 33.6875 169.219 33.6875C169.594 33.6875 169.896 33.8542 170.125 34.1875C170.375 34.5208 170.5 34.9479 170.5 35.4688C170.5 35.9479 170.375 36.4583 170.125 37C169.896 37.5417 169.51 38.0521 168.969 38.5312C167.906 39.6146 166.823 40.6562 165.719 41.6562C164.615 42.6354 163.479 43.5104 162.312 44.2812C161.167 45.0312 160.01 45.6354 158.844 46.0938C157.677 46.5521 156.5 46.7812 155.312 46.7812C153.625 46.7812 152.292 46.3542 151.312 45.5C150.354 44.625 149.875 43.2708 149.875 41.4375C149.875 40.4792 150.01 39.5417 150.281 38.625C150.552 37.7083 150.875 36.8229 151.25 35.9688C151.625 35.0938 152.021 34.2604 152.438 33.4688C152.854 32.6562 153.208 31.8854 153.5 31.1562C153.604 30.8854 153.781 30.4688 154.031 29.9062C154.302 29.3438 154.583 28.7708 154.875 28.1875C155.208 27.5 155.562 26.7708 155.938 26Z" fill="black"/>
</svg>
