<svg width="24" height="24" viewBox="0 0 24 24" fill="none" xmlns="http://www.w3.org/2000/svg">
<mask id="mask0_170_2455" style="mask-type:alpha" maskUnits="userSpaceOnUse" x="0" y="0" width="24" height="24">
<rect width="24" height="24" fill="#D9D9D9"/>
</mask>
<g mask="url(#mask0_170_2455)">
<path d="M12 11.7768C10.625 11.7768 9.48264 11.3128 8.57291 10.3847C7.6632 9.4566 7.20834 8.29117 7.20834 6.88841C7.20834 5.48565 7.6632 4.32022 8.57291 3.39215C9.48264 2.46405 10.625 2 12 2C13.375 2 14.5174 2.46405 15.4271 3.39215C16.3368 4.32022 16.7917 5.48565 16.7917 6.88841C16.7917 8.29117 16.3368 9.4566 15.4271 10.3847C14.5174 11.3128 13.375 11.7768 12 11.7768ZM4.08331 22C3.50694 22 3.01562 21.7928 2.60937 21.3783C2.20312 20.9639 2 20.4626 2 19.8746V18.8119C2 18.0326 2.19271 17.3507 2.57812 16.7662C2.96354 16.1817 3.46528 15.7372 4.08334 15.4325C5.44445 14.7878 6.7743 14.3043 8.07291 13.9819C9.37153 13.6596 10.6806 13.4984 12 13.4984C13.3194 13.4984 14.625 13.6631 15.9167 13.9926C17.2083 14.322 18.5347 14.802 19.8958 15.4325C20.5278 15.7372 21.0365 16.1817 21.4219 16.7662C21.8073 17.3507 22 18.0326 22 18.8119V19.8746C22 20.4626 21.7969 20.9639 21.3906 21.3783C20.9844 21.7928 20.4931 22 19.9167 22H4.08331Z" fill="#1C1B1F"/>
</g>
</svg>
