<svg width="24" height="24" viewBox="0 0 24 24" fill="none" xmlns="http://www.w3.org/2000/svg">
<path d="M3.14498 20.8533C3.41127 21.125 3.71001 21.25 4.08331 21.25H19.9167C20.29 21.25 20.5887 21.125 20.855 20.8533C21.1218 20.5811 21.25 20.2692 21.25 19.8746V18.8119C21.25 18.1622 21.0914 17.6274 20.7957 17.1791L21.4219 16.7662L20.7957 17.1791C20.4861 16.7095 20.0829 16.3564 19.5751 16.1105C18.2526 15.4982 16.9715 15.0356 15.7313 14.7193C14.4996 14.4052 13.2563 14.2484 12 14.2484C10.7423 14.2484 9.49394 14.402 8.25358 14.7098M3.14498 20.8533L8.07291 13.9819M3.14498 20.8533C2.87817 20.5811 2.75 20.2692 2.75 19.8746V18.8119C2.75 18.1622 2.90862 17.6274 3.20425 17.1791L2.57942 16.7671L3.20425 17.1791C3.5165 16.7056 3.91569 16.3524 4.40992 16.1077M3.14498 20.8533L4.08334 15.4325M8.25358 14.7098L8.07291 13.9819M8.25358 14.7098C8.25359 14.7098 8.25359 14.7098 8.2536 14.7098L8.07291 13.9819M8.25358 14.7098C7.01064 15.0184 5.72958 15.483 4.40992 16.1077M8.07291 13.9819C6.7743 14.3043 5.44445 14.7878 4.08334 15.4325M4.40992 16.1077C4.41159 16.1069 4.41327 16.1061 4.41494 16.1052L4.08334 15.4325M4.40992 16.1077C4.40808 16.1086 4.40624 16.1095 4.40439 16.1103L4.08334 15.4325M12 11.0268C10.8135 11.0268 9.86831 10.6348 9.1085 9.85969C8.34778 9.08359 7.95834 8.11202 7.95834 6.88841C7.95834 5.6648 8.34779 4.69323 9.10851 3.91715C9.86832 3.142 10.8135 2.75 12 2.75C13.1865 2.75 14.1317 3.142 14.8915 3.91715C15.6522 4.69323 16.0417 5.6648 16.0417 6.88841C16.0417 8.11202 15.6522 9.08359 14.8915 9.85969C14.1317 10.6348 13.1865 11.0268 12 11.0268Z" stroke="black" stroke-width="1.5"/>
</svg>
