<svg width="18" height="18" viewBox="0 0 18 18" fill="none" xmlns="http://www.w3.org/2000/svg">
<mask id="mask0_103_1953" style="mask-type:alpha" maskUnits="userSpaceOnUse" x="0" y="0" width="18" height="18">
<rect width="18" height="18" fill="#D9D9D9"/>
</mask>
<g mask="url(#mask0_103_1953)">
<path d="M9 16.5C7.975 16.5 7.00625 16.3031 6.09375 15.9094C5.18125 15.5156 4.38437 14.9781 3.70312 14.2969C3.02187 13.6156 2.48437 12.8187 2.09062 11.9062C1.69687 10.9937 1.5 10.025 1.5 9C1.5 7.9625 1.70312 6.9875 2.10937 6.075C2.51562 5.1625 3.06562 4.36875 3.75937 3.69375C4.45312 3.01875 5.2625 2.48437 6.1875 2.09062C7.1125 1.69687 8.1 1.5 9.15 1.5C10.15 1.5 11.0938 1.67187 11.9812 2.01562C12.8687 2.35937 13.6469 2.83437 14.3156 3.44062C14.9844 4.04687 15.5156 4.76562 15.9094 5.59687C16.3031 6.42812 16.5 7.325 16.5 8.2875C16.5 9.725 16.0625 10.8281 15.1875 11.5969C14.3125 12.3656 13.25 12.75 12 12.75H10.6125C10.5 12.75 10.4219 12.7812 10.3781 12.8437C10.3344 12.9062 10.3125 12.975 10.3125 13.05C10.3125 13.2 10.4062 13.4156 10.5937 13.6969C10.7812 13.9781 10.875 14.3 10.875 14.6625C10.875 15.2875 10.7031 15.75 10.3594 16.05C10.0156 16.35 9.5625 16.5 9 16.5ZM4.875 9.75C5.2 9.75 5.46875 9.64375 5.68125 9.43125C5.89375 9.21875 6 8.95 6 8.625C6 8.3 5.89375 8.03125 5.68125 7.81875C5.46875 7.60625 5.2 7.5 4.875 7.5C4.55 7.5 4.28125 7.60625 4.06875 7.81875C3.85625 8.03125 3.75 8.3 3.75 8.625C3.75 8.95 3.85625 9.21875 4.06875 9.43125C4.28125 9.64375 4.55 9.75 4.875 9.75ZM7.125 6.75C7.45 6.75 7.71875 6.64375 7.93125 6.43125C8.14375 6.21875 8.25 5.95 8.25 5.625C8.25 5.3 8.14375 5.03125 7.93125 4.81875C7.71875 4.60625 7.45 4.5 7.125 4.5C6.8 4.5 6.53125 4.60625 6.31875 4.81875C6.10625 5.03125 6 5.3 6 5.625C6 5.95 6.10625 6.21875 6.31875 6.43125C6.53125 6.64375 6.8 6.75 7.125 6.75ZM10.875 6.75C11.2 6.75 11.4687 6.64375 11.6812 6.43125C11.8937 6.21875 12 5.95 12 5.625C12 5.3 11.8937 5.03125 11.6812 4.81875C11.4687 4.60625 11.2 4.5 10.875 4.5C10.55 4.5 10.2812 4.60625 10.0687 4.81875C9.85625 5.03125 9.75 5.3 9.75 5.625C9.75 5.95 9.85625 6.21875 10.0687 6.43125C10.2812 6.64375 10.55 6.75 10.875 6.75ZM13.125 9.75C13.45 9.75 13.7188 9.64375 13.9312 9.43125C14.1437 9.21875 14.25 8.95 14.25 8.625C14.25 8.3 14.1437 8.03125 13.9312 7.81875C13.7188 7.60625 13.45 7.5 13.125 7.5C12.8 7.5 12.5312 7.60625 12.3187 7.81875C12.1062 8.03125 12 8.3 12 8.625C12 8.95 12.1062 9.21875 12.3187 9.43125C12.5312 9.64375 12.8 9.75 13.125 9.75ZM9 15C9.1125 15 9.20312 14.9687 9.27187 14.9062C9.34062 14.8437 9.375 14.7625 9.375 14.6625C9.375 14.4875 9.28125 14.2812 9.09375 14.0437C8.90625 13.8062 8.8125 13.45 8.8125 12.975C8.8125 12.45 8.99375 12.0312 9.35625 11.7187C9.71875 11.4062 10.1625 11.25 10.6875 11.25H12C12.825 11.25 13.5312 11.0094 14.1187 10.5281C14.7062 10.0469 15 9.3 15 8.2875C15 6.775 14.4219 5.51562 13.2656 4.50937C12.1094 3.50312 10.7375 3 9.15 3C7.45 3 6 3.58125 4.8 4.74375C3.6 5.90625 3 7.325 3 9C3 10.6625 3.58437 12.0781 4.75312 13.2469C5.92187 14.4156 7.3375 15 9 15Z" fill="white"/>
</g>
</svg>
