<svg width="18" height="18" viewBox="0 0 18 18" fill="none" xmlns="http://www.w3.org/2000/svg">
<path d="M1.66665 8.40965C1.20832 8.40965 0.815958 8.25326 0.489575 7.94047C0.163191 7.62767 0 7.25166 0 6.81244V2.18046C0 1.74122 0.163191 1.36521 0.489575 1.05243C0.815958 0.739644 1.20832 0.583252 1.66665 0.583252H6.50003C6.95834 0.583252 7.3507 0.739644 7.6771 1.05243C8.00348 1.36521 8.16668 1.74122 8.16668 2.18046V6.81244C8.16668 7.25166 8.00348 7.62767 7.6771 7.94047C7.3507 8.25326 6.95834 8.40965 6.50003 8.40965H1.66665ZM1.66665 17.8333C1.20832 17.8333 0.815958 17.6769 0.489575 17.3641C0.163191 17.0513 0 16.6753 0 16.236V11.6041C0 11.1648 0.163191 10.7888 0.489575 10.476C0.815958 10.1632 1.20832 10.0069 1.66665 10.0069H6.50003C6.95834 10.0069 7.3507 10.1632 7.6771 10.476C8.00348 10.7888 8.16668 11.1648 8.16668 11.6041V16.236C8.16668 16.6753 8.00348 17.0513 7.6771 17.3641C7.3507 17.6769 6.95834 17.8333 6.50003 17.8333H1.66665ZM11.5 8.40965C11.0417 8.40965 10.6493 8.25326 10.3229 7.94047C9.99652 7.62767 9.83333 7.25166 9.83333 6.81244V2.18046C9.83333 1.74122 9.99652 1.36521 10.3229 1.05243C10.6493 0.739644 11.0417 0.583252 11.5 0.583252H16.3334C16.7917 0.583252 17.184 0.739644 17.5104 1.05243C17.8368 1.36521 18 1.74122 18 2.18046V6.81244C18 7.25166 17.8368 7.62767 17.5104 7.94047C17.184 8.25326 16.7917 8.40965 16.3334 8.40965H11.5ZM11.5 17.8333C11.0417 17.8333 10.6493 17.6769 10.3229 17.3641C9.99652 17.0513 9.83333 16.6753 9.83333 16.236V11.6041C9.83333 11.1648 9.99652 10.7888 10.3229 10.476C10.6493 10.1632 11.0417 10.0069 11.5 10.0069H16.3334C16.7917 10.0069 17.184 10.1632 17.5104 10.476C17.8368 10.7888 18 11.1648 18 11.6041V16.236C18 16.6753 17.8368 17.0513 17.5104 17.3641C17.184 17.6769 16.7917 17.8333 16.3334 17.8333H11.5Z" fill="#1C1B1F"/>
</svg>
