<svg width="24" height="24" viewBox="0 0 24 24" fill="none" xmlns="http://www.w3.org/2000/svg">
<mask id="mask0_659_3839" style="mask-type:alpha" maskUnits="userSpaceOnUse" x="0" y="0" width="24" height="24">
<rect width="24" height="24" fill="#D9D9D9"/>
</mask>
<g mask="url(#mask0_659_3839)">
<path d="M4.66665 10.4094C4.20832 10.4094 3.81596 10.253 3.48957 9.94023C3.16319 9.62743 3 9.25142 3 8.8122V4.18021C3 3.74098 3.16319 3.36497 3.48957 3.05218C3.81596 2.7394 4.20832 2.58301 4.66665 2.58301H9.50003C9.95834 2.58301 10.3507 2.7394 10.6771 3.05218C11.0035 3.36497 11.1667 3.74098 11.1667 4.18021V8.8122C11.1667 9.25142 11.0035 9.62743 10.6771 9.94023C10.3507 10.253 9.95834 10.4094 9.50003 10.4094H4.66665ZM4.66665 19.833C4.20832 19.833 3.81596 19.6766 3.48957 19.3638C3.16319 19.051 3 18.675 3 18.2358V13.6038C3 13.1646 3.16319 12.7886 3.48957 12.4758C3.81596 12.163 4.20832 12.0066 4.66665 12.0066H9.50003C9.95834 12.0066 10.3507 12.163 10.6771 12.4758C11.0035 12.7886 11.1667 13.1646 11.1667 13.6038V18.2358C11.1667 18.675 11.0035 19.051 10.6771 19.3638C10.3507 19.6766 9.95834 19.833 9.50003 19.833H4.66665ZM14.5 10.4094C14.0417 10.4094 13.6493 10.253 13.3229 9.94023C12.9965 9.62743 12.8333 9.25142 12.8333 8.8122V4.18021C12.8333 3.74098 12.9965 3.36497 13.3229 3.05218C13.6493 2.7394 14.0417 2.58301 14.5 2.58301H19.3334C19.7917 2.58301 20.184 2.7394 20.5104 3.05218C20.8368 3.36497 21 3.74098 21 4.18021V8.8122C21 9.25142 20.8368 9.62743 20.5104 9.94023C20.184 10.253 19.7917 10.4094 19.3334 10.4094H14.5ZM14.5 19.833C14.0417 19.833 13.6493 19.6766 13.3229 19.3638C12.9965 19.051 12.8333 18.675 12.8333 18.2358V13.6038C12.8333 13.1646 12.9965 12.7886 13.3229 12.4758C13.6493 12.163 14.0417 12.0066 14.5 12.0066H19.3334C19.7917 12.0066 20.184 12.163 20.5104 12.4758C20.8368 12.7886 21 13.1646 21 13.6038V18.2358C21 18.675 20.8368 19.051 20.5104 19.3638C20.184 19.6766 19.7917 19.833 19.3334 19.833H14.5Z" fill="#1C1B1F"/>
</g>
</svg>
