<svg width="24" height="24" viewBox="0 0 24 24" fill="none" xmlns="http://www.w3.org/2000/svg">
<mask id="mask0_170_2448" style="mask-type:alpha" maskUnits="userSpaceOnUse" x="0" y="0" width="24" height="24">
<rect width="24" height="24" fill="#D9D9D9"/>
</mask>
<g mask="url(#mask0_170_2448)">
<path d="M4.66665 11.1667C4.20832 11.1667 3.81596 11.0035 3.48957 10.6771C3.16319 10.3507 3 9.95834 3 9.50002V4.66665C3 4.20832 3.16319 3.81596 3.48957 3.48958C3.81596 3.16319 4.20832 3 4.66665 3H9.50003C9.95834 3 10.3507 3.16319 10.6771 3.48958C11.0035 3.81596 11.1667 4.20832 11.1667 4.66665V9.50002C11.1667 9.95834 11.0035 10.3507 10.6771 10.6771C10.3507 11.0035 9.95834 11.1667 9.50003 11.1667H4.66665ZM4.66665 21C4.20832 21 3.81596 20.8368 3.48957 20.5104C3.16319 20.184 3 19.7917 3 19.3334V14.5C3 14.0417 3.16319 13.6493 3.48957 13.3229C3.81596 12.9965 4.20832 12.8333 4.66665 12.8333H9.50003C9.95834 12.8333 10.3507 12.9965 10.6771 13.3229C11.0035 13.6493 11.1667 14.0417 11.1667 14.5V19.3334C11.1667 19.7917 11.0035 20.184 10.6771 20.5104C10.3507 20.8368 9.95834 21 9.50003 21H4.66665ZM14.5 11.1667C14.0417 11.1667 13.6493 11.0035 13.3229 10.6771C12.9965 10.3507 12.8333 9.95834 12.8333 9.50002V4.66665C12.8333 4.20832 12.9965 3.81596 13.3229 3.48958C13.6493 3.16319 14.0417 3 14.5 3H19.3334C19.7917 3 20.184 3.16319 20.5104 3.48958C20.8368 3.81596 21 4.20832 21 4.66665V9.50002C21 9.95834 20.8368 10.3507 20.5104 10.6771C20.184 11.0035 19.7917 11.1667 19.3334 11.1667H14.5ZM14.5 21C14.0417 21 13.6493 20.8368 13.3229 20.5104C12.9965 20.184 12.8333 19.7917 12.8333 19.3334V14.5C12.8333 14.0417 12.9965 13.6493 13.3229 13.3229C13.6493 12.9965 14.0417 12.8333 14.5 12.8333H19.3334C19.7917 12.8333 20.184 12.9965 20.5104 13.3229C20.8368 13.6493 21 14.0417 21 14.5V19.3334C21 19.7917 20.8368 20.184 20.5104 20.5104C20.184 20.8368 19.7917 21 19.3334 21H14.5ZM4.66665 9.50002H9.50003V4.66665H4.66665V9.50002ZM14.5 9.50002H19.3334V4.66665H14.5V9.50002ZM14.5 19.3334H19.3334V14.5H14.5V19.3334ZM4.66665 19.3334H9.50003V14.5H4.66665V19.3334Z" fill="#1C1B1F"/>
</g>
</svg>
